<?xml version="1.0" encoding="utf-8" standalone="no"?>
<!DOCTYPE svg PUBLIC "-//W3C//DTD SVG 1.1//EN"
  "http://www.w3.org/Graphics/SVG/1.1/DTD/svg11.dtd">
<svg xmlns:xlink="http://www.w3.org/1999/xlink" width="720pt" height="360pt" viewBox="0 0 720 360" xmlns="http://www.w3.org/2000/svg" version="1.1">
 <metadata>
  <rdf:RDF xmlns:dc="http://purl.org/dc/elements/1.1/" xmlns:cc="http://creativecommons.org/ns#" xmlns:rdf="http://www.w3.org/1999/02/22-rdf-syntax-ns#">
   <cc:Work>
    <dc:type rdf:resource="http://purl.org/dc/dcmitype/StillImage"/>
    <dc:date>2025-07-24T09:34:10.757356</dc:date>
    <dc:format>image/svg+xml</dc:format>
    <dc:creator>
     <cc:Agent>
      <dc:title>Matplotlib v3.7.5, https://matplotlib.org/</dc:title>
     </cc:Agent>
    </dc:creator>
   </cc:Work>
  </rdf:RDF>
 </metadata>
 <defs>
  <style type="text/css">*{stroke-linejoin: round; stroke-linecap: butt}</style>
 </defs>
 <g id="figure_1">
  <g id="patch_1">
   <path d="M 0 360 
L 720 360 
L 720 0 
L 0 0 
z
" style="fill: #ffffff"/>
  </g>
  <g id="axes_1">
   <g id="patch_2">
    <path d="M 90 320.4 
L 648 320.4 
L 648 43.2 
L 90 43.2 
z
" style="fill: #eaeaf2"/>
   </g>
   <g id="matplotlib.axis_1">
    <g id="xtick_1">
     <g id="line2d_1">
      <path d="M 166.490336 320.4 
L 166.490336 43.2 
" clip-path="url(#p917669e93f)" style="fill: none; stroke: #ffffff; stroke-linecap: round"/>
     </g>
     <g id="line2d_2"/>
     <g id="text_1">
      <!-- -0.4 -->
      <g style="fill: #262626" transform="translate(156.490336 334.275) scale(0.1 -0.1)">
       <defs>
        <path id="SimHei-2d" d="M 2975 2125 
L 125 2125 
L 125 2525 
L 2975 2525 
L 2975 2125 
z
" transform="scale(0.015625)"/>
        <path id="SimHei-30" d="M 225 2537 
Q 250 3200 412 3587 
Q 575 3975 875 4225 
Q 1175 4475 1612 4475 
Q 2050 4475 2375 4112 
Q 2700 3750 2800 3200 
Q 2900 2650 2862 1937 
Q 2825 1225 2612 775 
Q 2400 325 1975 150 
Q 1550 -25 1125 187 
Q 700 400 525 750 
Q 350 1100 275 1487 
Q 200 1875 225 2537 
z
M 750 2687 
Q 675 2000 800 1462 
Q 925 925 1212 700 
Q 1500 475 1800 612 
Q 2100 750 2237 1162 
Q 2375 1575 2375 2062 
Q 2375 2550 2337 2950 
Q 2300 3350 2112 3675 
Q 1925 4000 1612 4012 
Q 1300 4025 1062 3700 
Q 825 3375 750 2687 
z
" transform="scale(0.015625)"/>
        <path id="SimHei-2e" d="M 1075 125 
L 500 125 
L 500 675 
L 1075 675 
L 1075 125 
z
" transform="scale(0.015625)"/>
        <path id="SimHei-34" d="M 2000 1100 
L 75 1100 
L 75 1525 
L 2100 4450 
L 2475 4450 
L 2475 1525 
L 3075 1525 
L 3075 1100 
L 2475 1100 
L 2475 150 
L 2000 150 
L 2000 1100 
z
M 2000 1525 
L 2000 3500 
L 600 1525 
L 2000 1525 
z
" transform="scale(0.015625)"/>
       </defs>
       <use xlink:href="#SimHei-2d"/>
       <use xlink:href="#SimHei-30" x="50"/>
       <use xlink:href="#SimHei-2e" x="100"/>
       <use xlink:href="#SimHei-34" x="150"/>
      </g>
     </g>
    </g>
    <g id="xtick_2">
     <g id="line2d_3">
      <path d="M 268.743737 320.4 
L 268.743737 43.2 
" clip-path="url(#p917669e93f)" style="fill: none; stroke: #ffffff; stroke-linecap: round"/>
     </g>
     <g id="line2d_4"/>
     <g id="text_2">
      <!-- -0.2 -->
      <g style="fill: #262626" transform="translate(258.743737 334.275) scale(0.1 -0.1)">
       <defs>
        <path id="SimHei-32" d="M 300 250 
Q 325 625 650 925 
Q 975 1225 1475 1862 
Q 1975 2500 2125 2850 
Q 2275 3200 2237 3450 
Q 2200 3700 2000 3862 
Q 1800 4025 1537 4000 
Q 1275 3975 1037 3800 
Q 800 3625 675 3275 
L 200 3350 
Q 400 3925 712 4187 
Q 1025 4450 1450 4475 
Q 1700 4500 1900 4462 
Q 2100 4425 2312 4287 
Q 2525 4150 2662 3875 
Q 2800 3600 2762 3212 
Q 2725 2825 2375 2287 
Q 2025 1750 1025 600 
L 2825 600 
L 2825 150 
L 300 150 
L 300 250 
z
" transform="scale(0.015625)"/>
       </defs>
       <use xlink:href="#SimHei-2d"/>
       <use xlink:href="#SimHei-30" x="50"/>
       <use xlink:href="#SimHei-2e" x="100"/>
       <use xlink:href="#SimHei-32" x="150"/>
      </g>
     </g>
    </g>
    <g id="xtick_3">
     <g id="line2d_5">
      <path d="M 370.997137 320.4 
L 370.997137 43.2 
" clip-path="url(#p917669e93f)" style="fill: none; stroke: #ffffff; stroke-linecap: round"/>
     </g>
     <g id="line2d_6"/>
     <g id="text_3">
      <!-- 0.0 -->
      <g style="fill: #262626" transform="translate(363.497137 334.275) scale(0.1 -0.1)">
       <use xlink:href="#SimHei-30"/>
       <use xlink:href="#SimHei-2e" x="50"/>
       <use xlink:href="#SimHei-30" x="100"/>
      </g>
     </g>
    </g>
    <g id="xtick_4">
     <g id="line2d_7">
      <path d="M 473.250537 320.4 
L 473.250537 43.2 
" clip-path="url(#p917669e93f)" style="fill: none; stroke: #ffffff; stroke-linecap: round"/>
     </g>
     <g id="line2d_8"/>
     <g id="text_4">
      <!-- 0.2 -->
      <g style="fill: #262626" transform="translate(465.750537 334.275) scale(0.1 -0.1)">
       <use xlink:href="#SimHei-30"/>
       <use xlink:href="#SimHei-2e" x="50"/>
       <use xlink:href="#SimHei-32" x="100"/>
      </g>
     </g>
    </g>
    <g id="xtick_5">
     <g id="line2d_9">
      <path d="M 575.503937 320.4 
L 575.503937 43.2 
" clip-path="url(#p917669e93f)" style="fill: none; stroke: #ffffff; stroke-linecap: round"/>
     </g>
     <g id="line2d_10"/>
     <g id="text_5">
      <!-- 0.4 -->
      <g style="fill: #262626" transform="translate(568.003937 334.275) scale(0.1 -0.1)">
       <use xlink:href="#SimHei-30"/>
       <use xlink:href="#SimHei-2e" x="50"/>
       <use xlink:href="#SimHei-34" x="100"/>
      </g>
     </g>
    </g>
    <g id="text_6">
     <!-- 垂直频率 -->
     <g style="fill: #262626" transform="translate(347 348.11875) scale(0.11 -0.11)">
      <defs>
       <path id="SimHei-5782" d="M 4975 5050 
Q 5100 4800 5275 4550 
Q 4650 4550 3450 4400 
L 3450 3700 
L 4850 3700 
Q 5250 3700 5725 3725 
L 5725 3275 
Q 5250 3300 4900 3300 
L 4900 2450 
Q 5550 2450 6050 2475 
L 6050 2025 
Q 5550 2050 4900 2050 
L 4900 1175 
L 4925 1175 
Q 5250 1175 5725 1200 
L 5725 725 
L 5250 750 
L 3450 750 
L 3450 0 
L 4625 0 
Q 4925 0 5400 25 
L 5400 -400 
Q 4950 -375 4650 -375 
L 1850 -375 
Q 1400 -375 1025 -400 
L 1025 25 
Q 1425 0 1850 0 
L 2975 0 
L 2975 750 
L 1550 750 
Q 1100 750 700 725 
L 700 1200 
Q 1100 1175 1475 1175 
L 1575 1175 
L 1575 2050 
Q 750 2050 300 2025 
L 300 2475 
Q 625 2450 1575 2450 
L 1575 3300 
L 1475 3300 
Q 1075 3300 675 3275 
L 675 3725 
Q 1100 3700 1475 3700 
L 2975 3700 
L 2975 4350 
Q 1575 4275 1125 4250 
Q 1100 4425 900 4700 
Q 1525 4675 2125 4700 
Q 2725 4725 3250 4775 
Q 3775 4825 4237 4900 
Q 4700 4975 4975 5050 
z
M 4425 1175 
L 4425 2050 
L 3450 2050 
L 3450 1175 
L 4425 1175 
z
M 4425 2450 
L 4425 3300 
L 3450 3300 
L 3450 2450 
L 4425 2450 
z
M 2975 1175 
L 2975 2050 
L 2050 2050 
L 2050 1175 
L 2975 1175 
z
M 2975 2450 
L 2975 3300 
L 2050 3300 
L 2050 2450 
L 2975 2450 
z
" transform="scale(0.015625)"/>
       <path id="SimHei-76f4" d="M 3550 5025 
Q 3475 4875 3400 4525 
L 4825 4525 
Q 5225 4525 5775 4550 
L 5775 4100 
Q 5250 4125 4825 4125 
L 3350 4125 
Q 3300 3775 3275 3525 
L 5100 3525 
Q 5075 3075 5075 2525 
L 5075 100 
L 5300 100 
Q 5650 100 6100 125 
L 6100 -350 
Q 5675 -325 5300 -325 
L 1225 -325 
Q 800 -325 325 -350 
L 325 125 
Q 825 100 1225 100 
L 1375 100 
L 1375 2525 
Q 1375 3175 1350 3525 
L 2775 3525 
Q 2825 3825 2850 4125 
L 1550 4125 
Q 1075 4125 600 4100 
L 600 4550 
Q 1075 4525 1525 4525 
L 2875 4525 
Q 2900 4800 2875 5075 
Q 3275 5025 3550 5025 
z
M 4600 975 
L 4600 1450 
L 1850 1450 
L 1850 975 
L 4600 975 
z
M 4600 100 
L 4600 575 
L 1850 575 
L 1850 100 
L 4600 100 
z
M 4600 2650 
L 4600 3125 
L 1850 3125 
L 1850 2650 
L 4600 2650 
z
M 4600 1825 
L 4600 2275 
L 1850 2275 
L 1850 1825 
L 4600 1825 
z
" transform="scale(0.015625)"/>
       <path id="SimHei-9891" d="M 4250 4450 
Q 3575 4450 3125 4425 
L 3125 4850 
Q 3550 4825 3925 4825 
L 5225 4825 
Q 5600 4825 6000 4850 
L 6000 4425 
Q 5600 4450 4700 4450 
Q 4625 4050 4550 3625 
L 5875 3625 
Q 5850 3275 5850 2900 
L 5850 1650 
Q 5850 1300 5875 750 
L 5400 750 
L 5400 3250 
L 3875 3250 
L 3875 800 
L 3400 800 
Q 3425 1275 3425 1650 
L 3425 2825 
Q 3425 3275 3400 3625 
L 4125 3625 
Q 4200 4100 4250 4450 
z
M 1675 2750 
Q 650 2750 350 2725 
L 350 3150 
Q 550 3125 725 3125 
Q 725 4275 700 4625 
L 1200 4625 
Q 1175 4275 1175 3125 
L 1675 3125 
L 1675 4275 
Q 1675 4750 1650 5125 
L 2150 5125 
Q 2125 4750 2125 4250 
Q 2625 4250 3025 4275 
L 3025 3850 
Q 2625 3875 2125 3875 
L 2125 3125 
Q 2850 3125 3150 3150 
L 3150 2725 
Q 2850 2750 2125 2750 
L 1675 2750 
z
M 2150 2600 
Q 2125 2250 2125 1925 
L 2125 1050 
Q 2600 1650 2650 2200 
Q 2875 2100 3175 2075 
Q 2850 1075 2187 450 
Q 1525 -175 700 -500 
Q 550 -250 200 -75 
Q 750 75 1087 237 
Q 1425 400 1675 625 
L 1675 1900 
Q 1675 2250 1650 2600 
L 2150 2600 
z
M 2775 -250 
Q 3400 -75 3737 225 
Q 4075 525 4212 887 
Q 4350 1250 4362 1725 
Q 4375 2200 4350 2750 
Q 4650 2700 4925 2650 
Q 4850 2325 4837 1975 
Q 4825 1625 4750 1112 
Q 4675 600 4300 162 
Q 3925 -275 3250 -650 
Q 3075 -450 2775 -250 
z
M 5850 -650 
Q 5550 -275 4800 250 
Q 4975 425 5075 600 
Q 5825 75 6200 -250 
Q 5975 -425 5850 -650 
z
M 400 1175 
Q 650 1550 900 2375 
Q 1125 2275 1375 2225 
Q 1000 1325 850 1025 
Q 650 1150 400 1175 
z
" transform="scale(0.015625)"/>
       <path id="SimHei-7387" d="M 3325 5150 
Q 3425 4900 3550 4525 
L 4800 4525 
Q 5250 4525 5800 4550 
L 5800 4125 
Q 5250 4175 4775 4175 
L 2800 4175 
Q 2975 4050 3300 3900 
Q 3075 3750 2875 3537 
Q 2675 3325 2475 3125 
L 3275 3125 
Q 3575 3425 3775 3775 
Q 4000 3600 4275 3425 
Q 3950 3250 3600 2875 
Q 3250 2500 2625 2000 
L 3850 2100 
Q 3725 2250 3600 2425 
Q 3750 2475 4000 2650 
Q 4250 2350 4700 1700 
Q 4475 1625 4225 1450 
Q 4175 1600 4025 1775 
Q 3700 1750 3425 1750 
L 3425 1050 
L 5150 1050 
Q 5675 1050 6100 1075 
L 6100 650 
Q 5700 675 5125 675 
L 3425 675 
L 3425 175 
Q 3425 -300 3450 -625 
L 2900 -625 
Q 2925 -300 2925 175 
L 2925 675 
L 1325 675 
Q 825 675 325 650 
L 325 1075 
Q 825 1050 1350 1050 
L 2925 1050 
L 2925 1700 
Q 2700 1675 2475 1637 
Q 2250 1600 2025 1525 
Q 1950 1775 1850 2000 
Q 2075 2025 2325 2200 
Q 2575 2375 2975 2800 
Q 2300 2725 2025 2625 
Q 1975 2875 1850 3175 
Q 2075 3175 2325 3487 
Q 2575 3800 2750 4175 
L 1700 4175 
Q 1150 4175 650 4125 
L 650 4550 
Q 1150 4525 1550 4525 
L 2975 4525 
Q 2900 4825 2800 5025 
Q 3025 5075 3325 5150 
z
M 1625 2575 
Q 1725 2400 1825 2200 
Q 1575 2050 1325 1862 
Q 1075 1675 800 1425 
Q 625 1675 475 1875 
Q 800 2025 1100 2212 
Q 1400 2400 1625 2575 
z
M 4850 2650 
Q 5125 2475 5337 2337 
Q 5550 2200 5875 1950 
Q 5675 1800 5500 1600 
Q 5300 1775 5062 1975 
Q 4825 2175 4575 2325 
Q 4725 2475 4850 2650 
z
M 5725 3525 
Q 5550 3450 5300 3262 
Q 5050 3075 4800 2825 
Q 4625 3050 4475 3175 
Q 4700 3325 4875 3487 
Q 5050 3650 5300 3925 
Q 5525 3700 5725 3525 
z
M 1050 3850 
Q 1425 3600 1775 3275 
Q 1575 3100 1425 2925 
Q 1075 3300 675 3525 
Q 875 3700 1050 3850 
z
" transform="scale(0.015625)"/>
      </defs>
      <use xlink:href="#SimHei-5782"/>
      <use xlink:href="#SimHei-76f4" x="100"/>
      <use xlink:href="#SimHei-9891" x="200"/>
      <use xlink:href="#SimHei-7387" x="300"/>
     </g>
    </g>
   </g>
   <g id="matplotlib.axis_2">
    <g id="ytick_1">
     <g id="line2d_11">
      <path d="M 90 307.800417 
L 648 307.800417 
" clip-path="url(#p917669e93f)" style="fill: none; stroke: #ffffff; stroke-linecap: round"/>
     </g>
     <g id="line2d_12"/>
     <g id="text_7">
      <!-- 0.0 -->
      <g style="fill: #262626" transform="translate(68 311.237917) scale(0.1 -0.1)">
       <use xlink:href="#SimHei-30"/>
       <use xlink:href="#SimHei-2e" x="50"/>
       <use xlink:href="#SimHei-30" x="100"/>
      </g>
     </g>
    </g>
    <g id="ytick_2">
     <g id="line2d_13">
      <path d="M 90 266.11082 
L 648 266.11082 
" clip-path="url(#p917669e93f)" style="fill: none; stroke: #ffffff; stroke-linecap: round"/>
     </g>
     <g id="line2d_14"/>
     <g id="text_8">
      <!-- 0.5 -->
      <g style="fill: #262626" transform="translate(68 269.54832) scale(0.1 -0.1)">
       <defs>
        <path id="SimHei-35" d="M 550 1325 
Q 725 650 1150 575 
Q 1575 500 1837 662 
Q 2100 825 2212 1087 
Q 2325 1350 2312 1675 
Q 2300 2000 2137 2225 
Q 1975 2450 1725 2525 
Q 1475 2600 1162 2525 
Q 850 2450 650 2175 
L 225 2225 
Q 275 2375 700 4375 
L 2675 4375 
L 2675 3925 
L 1075 3925 
Q 950 3250 825 2850 
Q 1200 3025 1525 3012 
Q 1850 3000 2150 2862 
Q 2450 2725 2587 2487 
Q 2725 2250 2787 2012 
Q 2850 1775 2837 1500 
Q 2825 1225 2725 937 
Q 2625 650 2425 462 
Q 2225 275 1937 162 
Q 1650 50 1275 75 
Q 900 100 562 350 
Q 225 600 100 1200 
L 550 1325 
z
" transform="scale(0.015625)"/>
       </defs>
       <use xlink:href="#SimHei-30"/>
       <use xlink:href="#SimHei-2e" x="50"/>
       <use xlink:href="#SimHei-35" x="100"/>
      </g>
     </g>
    </g>
    <g id="ytick_3">
     <g id="line2d_15">
      <path d="M 90 224.421223 
L 648 224.421223 
" clip-path="url(#p917669e93f)" style="fill: none; stroke: #ffffff; stroke-linecap: round"/>
     </g>
     <g id="line2d_16"/>
     <g id="text_9">
      <!-- 1.0 -->
      <g style="fill: #262626" transform="translate(68 227.858723) scale(0.1 -0.1)">
       <defs>
        <path id="SimHei-31" d="M 1400 3600 
Q 1075 3275 575 2975 
L 575 3450 
Q 1200 3875 1600 4450 
L 1900 4450 
L 1900 150 
L 1400 150 
L 1400 3600 
z
" transform="scale(0.015625)"/>
       </defs>
       <use xlink:href="#SimHei-31"/>
       <use xlink:href="#SimHei-2e" x="50"/>
       <use xlink:href="#SimHei-30" x="100"/>
      </g>
     </g>
    </g>
    <g id="ytick_4">
     <g id="line2d_17">
      <path d="M 90 182.731626 
L 648 182.731626 
" clip-path="url(#p917669e93f)" style="fill: none; stroke: #ffffff; stroke-linecap: round"/>
     </g>
     <g id="line2d_18"/>
     <g id="text_10">
      <!-- 1.5 -->
      <g style="fill: #262626" transform="translate(68 186.169126) scale(0.1 -0.1)">
       <use xlink:href="#SimHei-31"/>
       <use xlink:href="#SimHei-2e" x="50"/>
       <use xlink:href="#SimHei-35" x="100"/>
      </g>
     </g>
    </g>
    <g id="ytick_5">
     <g id="line2d_19">
      <path d="M 90 141.042029 
L 648 141.042029 
" clip-path="url(#p917669e93f)" style="fill: none; stroke: #ffffff; stroke-linecap: round"/>
     </g>
     <g id="line2d_20"/>
     <g id="text_11">
      <!-- 2.0 -->
      <g style="fill: #262626" transform="translate(68 144.479529) scale(0.1 -0.1)">
       <use xlink:href="#SimHei-32"/>
       <use xlink:href="#SimHei-2e" x="50"/>
       <use xlink:href="#SimHei-30" x="100"/>
      </g>
     </g>
    </g>
    <g id="ytick_6">
     <g id="line2d_21">
      <path d="M 90 99.352432 
L 648 99.352432 
" clip-path="url(#p917669e93f)" style="fill: none; stroke: #ffffff; stroke-linecap: round"/>
     </g>
     <g id="line2d_22"/>
     <g id="text_12">
      <!-- 2.5 -->
      <g style="fill: #262626" transform="translate(68 102.789932) scale(0.1 -0.1)">
       <use xlink:href="#SimHei-32"/>
       <use xlink:href="#SimHei-2e" x="50"/>
       <use xlink:href="#SimHei-35" x="100"/>
      </g>
     </g>
    </g>
    <g id="ytick_7">
     <g id="line2d_23">
      <path d="M 90 57.662835 
L 648 57.662835 
" clip-path="url(#p917669e93f)" style="fill: none; stroke: #ffffff; stroke-linecap: round"/>
     </g>
     <g id="line2d_24"/>
     <g id="text_13">
      <!-- 3.0 -->
      <g style="fill: #262626" transform="translate(68 61.100335) scale(0.1 -0.1)">
       <defs>
        <path id="SimHei-33" d="M 250 1225 
L 700 1300 
Q 800 975 1025 762 
Q 1250 550 1587 562 
Q 1925 575 2125 837 
Q 2325 1100 2300 1437 
Q 2275 1775 2037 1962 
Q 1800 2150 1275 2225 
L 1275 2550 
Q 1800 2600 2037 2825 
Q 2275 3050 2250 3412 
Q 2225 3775 1925 3937 
Q 1625 4100 1287 3975 
Q 950 3850 750 3275 
L 300 3350 
Q 450 3800 712 4100 
Q 975 4400 1425 4450 
Q 1875 4500 2212 4337 
Q 2550 4175 2687 3837 
Q 2825 3500 2725 3100 
Q 2625 2700 2150 2400 
Q 2500 2250 2687 1950 
Q 2875 1650 2812 1162 
Q 2750 675 2375 375 
Q 2000 75 1525 87 
Q 1050 100 700 387 
Q 350 675 250 1225 
z
" transform="scale(0.015625)"/>
       </defs>
       <use xlink:href="#SimHei-33"/>
       <use xlink:href="#SimHei-2e" x="50"/>
       <use xlink:href="#SimHei-30" x="100"/>
      </g>
     </g>
    </g>
    <g id="text_14">
     <!-- 幅度 (对数) -->
     <g style="fill: #262626" transform="translate(62.625 212.05) rotate(-90) scale(0.11 -0.11)">
      <defs>
       <path id="SimHei-5e45" d="M 5950 2250 
Q 5925 1875 5925 900 
Q 5925 -50 5950 -425 
L 5450 -425 
L 5450 -175 
L 3350 -175 
L 3350 -475 
L 2875 -475 
Q 2900 200 2900 1025 
Q 2900 1875 2875 2250 
L 5950 2250 
z
M 2575 1125 
Q 2575 800 2437 700 
Q 2300 600 1950 525 
Q 1900 800 1750 1000 
Q 1975 1000 2075 1037 
Q 2175 1075 2175 1300 
L 2175 3725 
L 1700 3725 
L 1700 475 
Q 1700 0 1725 -550 
L 1225 -550 
Q 1250 -25 1250 475 
L 1250 3725 
L 850 3725 
L 850 500 
L 400 500 
Q 425 1000 425 2300 
Q 425 3600 400 4100 
L 1250 4100 
L 1250 4500 
Q 1250 4825 1225 5175 
L 1725 5175 
Q 1700 4825 1700 4500 
L 1700 4100 
L 2600 4100 
Q 2575 3900 2575 3225 
L 2575 1125 
z
M 5575 3925 
Q 5550 3625 5550 3300 
Q 5550 2975 5575 2600 
L 3200 2600 
Q 3225 2975 3225 3300 
Q 3225 3625 3200 3925 
L 5575 3925 
z
M 5250 4800 
Q 5650 4800 6025 4825 
L 6025 4375 
Q 5650 4400 5250 4400 
L 3550 4400 
Q 3075 4400 2800 4375 
L 2800 4825 
Q 3075 4800 3550 4800 
L 5250 4800 
z
M 5150 2975 
L 5150 3575 
L 3625 3575 
L 3625 2975 
L 5150 2975 
z
M 5450 1225 
L 5450 1875 
L 4625 1875 
L 4625 1225 
L 5450 1225 
z
M 4175 200 
L 4175 850 
L 3350 850 
L 3350 200 
L 4175 200 
z
M 5450 200 
L 5450 850 
L 4625 850 
L 4625 200 
L 5450 200 
z
M 4175 1225 
L 4175 1875 
L 3350 1875 
L 3350 1225 
L 4175 1225 
z
" transform="scale(0.015625)"/>
       <path id="SimHei-5ea6" d="M 1750 1675 
Q 2450 1650 2875 1650 
L 5200 1650 
Q 4975 1250 4650 850 
Q 4325 450 4025 200 
Q 4350 50 4950 -50 
Q 5550 -150 6100 -150 
Q 5950 -300 5825 -650 
Q 5100 -550 4550 -412 
Q 4000 -275 3625 -100 
Q 3100 -325 2587 -462 
Q 2075 -600 1525 -675 
Q 1450 -475 1225 -250 
Q 1675 -250 2250 -125 
Q 2825 0 3250 200 
Q 2825 550 2400 1275 
L 1750 1250 
L 1750 1675 
z
M 2975 5075 
Q 3250 5150 3475 5250 
Q 3625 4975 3775 4525 
L 4700 4525 
Q 4975 4525 5700 4550 
L 5700 4100 
Q 5000 4125 4650 4125 
L 1375 4125 
Q 1375 3000 1350 2312 
Q 1325 1625 1212 950 
Q 1100 275 725 -525 
Q 500 -375 250 -300 
Q 650 400 762 1075 
Q 875 1750 887 2800 
Q 900 3850 875 4525 
L 3200 4525 
Q 3100 4850 2975 5075 
z
M 2475 3300 
Q 2475 3700 2450 3925 
L 2975 3925 
Q 2950 3725 2950 3300 
L 4300 3300 
Q 4300 3700 4275 3950 
L 4800 3950 
Q 4775 3650 4775 3300 
Q 5325 3300 5725 3325 
L 5725 2900 
Q 5350 2925 4775 2925 
Q 4775 2250 4800 1950 
L 2450 1950 
Q 2475 2350 2475 2925 
Q 2175 2925 1600 2900 
L 1600 3325 
Q 2175 3300 2475 3300 
z
M 4300 2350 
L 4300 2925 
L 2950 2925 
L 2950 2350 
L 4300 2350 
z
M 2875 1275 
Q 3200 775 3650 425 
Q 4025 700 4425 1275 
L 2900 1275 
L 2875 1275 
z
" transform="scale(0.015625)"/>
       <path id="SimHei-20" transform="scale(0.015625)"/>
       <path id="SimHei-28" d="M 2975 -200 
L 2700 -475 
Q 2075 125 1762 775 
Q 1450 1425 1450 2250 
Q 1450 3075 1762 3725 
Q 2075 4375 2700 5000 
L 2975 4725 
Q 2400 4175 2112 3587 
Q 1825 3000 1825 2250 
Q 1825 1500 2112 912 
Q 2400 325 2975 -200 
z
" transform="scale(0.015625)"/>
       <path id="SimHei-5bf9" d="M 525 4250 
Q 900 4225 1400 4225 
L 2825 4225 
Q 2575 2625 2200 1750 
Q 2825 875 3125 400 
Q 2950 275 2725 75 
Q 2200 975 1950 1300 
Q 1650 775 1350 425 
Q 1050 75 600 -350 
Q 425 -125 200 -25 
Q 625 275 975 675 
Q 1325 1075 1650 1700 
Q 1050 2425 550 2900 
Q 700 3025 900 3225 
Q 1625 2425 1875 2150 
Q 2200 3050 2300 3825 
L 1400 3825 
Q 900 3825 525 3800 
L 525 4250 
z
M 2925 3700 
Q 3525 3675 3750 3675 
L 4825 3675 
L 4825 4425 
Q 4825 4750 4775 5125 
L 5350 5125 
Q 5325 4825 5325 4375 
L 5325 3675 
Q 5575 3675 6150 3700 
L 6150 3250 
Q 5575 3275 5325 3275 
L 5325 125 
Q 5350 -350 5012 -475 
Q 4675 -600 4250 -650 
Q 4175 -350 4025 -100 
Q 4575 -100 4712 -37 
Q 4850 25 4825 325 
L 4825 3275 
L 3775 3275 
Q 3550 3275 2925 3225 
L 2925 3700 
z
M 3450 2725 
Q 3875 1975 4175 1325 
Q 3850 1200 3700 1075 
Q 3475 1750 3050 2475 
Q 3225 2550 3450 2725 
z
" transform="scale(0.015625)"/>
       <path id="SimHei-6570" d="M 4525 4925 
Q 4475 4800 4400 4587 
Q 4325 4375 4175 3825 
L 5325 3825 
Q 5575 3825 5925 3850 
L 5925 3400 
Q 5650 3425 5500 3425 
Q 5500 3025 5362 2162 
Q 5225 1300 4875 675 
Q 5125 375 5437 137 
Q 5750 -100 6025 -200 
Q 5725 -425 5625 -625 
Q 5325 -450 5075 -225 
Q 4825 0 4575 325 
Q 4300 25 3987 -187 
Q 3675 -400 3200 -650 
Q 3075 -425 2850 -300 
Q 3225 -150 3650 125 
Q 4075 400 4300 675 
Q 4125 1025 3962 1425 
Q 3800 1825 3675 2475 
Q 3600 2275 3425 1950 
Q 3250 2050 3000 2150 
Q 3400 2850 3650 3675 
Q 3900 4500 3975 5100 
Q 4275 4975 4525 4925 
z
M 2100 2250 
Q 2000 2150 1875 1925 
L 3250 1925 
Q 3100 1300 2725 675 
Q 3125 525 3350 400 
Q 3225 225 3125 25 
Q 2900 175 2450 325 
Q 1950 -225 725 -650 
Q 600 -375 400 -275 
Q 1575 0 2000 475 
Q 1300 650 850 775 
Q 1000 1000 1250 1525 
Q 1000 1525 425 1500 
L 425 1950 
Q 900 1925 1400 1925 
Q 1500 2150 1550 2425 
Q 1825 2325 2100 2250 
z
M 1775 3950 
Q 1775 4550 1750 5100 
L 2250 5100 
Q 2225 4575 2225 3950 
Q 3075 3950 3425 3975 
L 3425 3525 
Q 3075 3550 2225 3550 
Q 2225 2825 2250 2425 
L 1750 2425 
Q 1775 2775 1775 3300 
Q 1650 3100 1300 2787 
Q 950 2475 650 2300 
Q 525 2525 275 2625 
Q 500 2700 875 2975 
Q 1250 3250 1450 3550 
Q 950 3550 500 3525 
L 500 3975 
Q 925 3950 1775 3950 
z
M 3975 3175 
Q 4200 1700 4600 1125 
Q 4850 1700 4937 2287 
Q 5025 2875 5050 3425 
L 4075 3425 
L 3975 3175 
z
M 1450 1000 
Q 1750 925 2275 800 
Q 2475 1050 2650 1525 
L 1725 1525 
Q 1600 1275 1450 1000 
z
M 3325 4825 
Q 3200 4625 3125 4450 
Q 3050 4275 2925 4025 
Q 2725 4125 2525 4175 
Q 2725 4500 2900 5000 
Q 3150 4875 3325 4825 
z
M 2575 3375 
Q 2900 3050 3200 2725 
Q 3050 2600 2875 2425 
Q 2525 2850 2300 3100 
Q 2450 3225 2575 3375 
z
M 925 5000 
Q 1275 4650 1500 4300 
L 1125 4075 
Q 950 4425 600 4725 
Q 825 4875 925 5000 
z
" transform="scale(0.015625)"/>
       <path id="SimHei-29" d="M 1675 2250 
Q 1675 1425 1362 775 
Q 1050 125 425 -475 
L 150 -200 
Q 725 325 1012 912 
Q 1300 1500 1300 2250 
Q 1300 3000 1012 3587 
Q 725 4175 150 4725 
L 425 5000 
Q 1050 4375 1362 3725 
Q 1675 3075 1675 2250 
z
" transform="scale(0.015625)"/>
      </defs>
      <use xlink:href="#SimHei-5e45"/>
      <use xlink:href="#SimHei-5ea6" x="100"/>
      <use xlink:href="#SimHei-20" x="200"/>
      <use xlink:href="#SimHei-28" x="250"/>
      <use xlink:href="#SimHei-5bf9" x="300"/>
      <use xlink:href="#SimHei-6570" x="400"/>
      <use xlink:href="#SimHei-29" x="500"/>
     </g>
    </g>
   </g>
   <g id="line2d_25">
    <path d="M 115.363636 299.857009 
L 119.35791 299.739456 
L 123.352183 299.362077 
L 127.346457 298.645048 
L 131.34073 297.405715 
L 135.335004 295.207322 
L 139.329277 290.803032 
L 143.32355 278.71688 
L 147.317824 55.8 
L 151.312097 280.798597 
L 155.306371 294.108516 
L 159.300644 298.938392 
L 163.294918 301.422173 
L 167.289191 302.918118 
L 171.283465 303.90408 
L 175.277738 304.604752 
L 179.272011 305.121575 
L 187.260558 305.828326 
L 195.249105 306.282745 
L 207.231926 306.720901 
L 223.209019 307.065661 
L 247.17466 307.354638 
L 307.088762 307.657559 
L 386.97423 307.766312 
L 478.84252 307.466392 
L 514.790981 307.127912 
L 534.762348 306.720901 
L 546.745168 306.282745 
L 554.733715 305.828326 
L 562.722262 305.121575 
L 566.716535 304.604752 
L 570.710809 303.90408 
L 574.705082 302.918118 
L 578.699356 301.422173 
L 582.693629 298.938392 
L 586.687903 294.108516 
L 590.682176 280.798597 
L 594.67645 55.8 
L 598.670723 278.71688 
L 602.664996 290.803032 
L 606.65927 295.207322 
L 610.653543 297.405715 
L 614.647817 298.645048 
L 618.64209 299.362069 
L 622.636364 299.739456 
L 622.636364 299.739456 
" clip-path="url(#p917669e93f)" style="fill: none; stroke: #008000; stroke-width: 2; stroke-linecap: round"/>
   </g>
   <g id="patch_3">
    <path d="M 90 320.4 
L 90 43.2 
" style="fill: none"/>
   </g>
   <g id="patch_4">
    <path d="M 648 320.4 
L 648 43.2 
" style="fill: none"/>
   </g>
   <g id="patch_5">
    <path d="M 90 320.4 
L 648 320.4 
" style="fill: none"/>
   </g>
   <g id="patch_6">
    <path d="M 90 43.2 
L 648 43.2 
" style="fill: none"/>
   </g>
   <g id="text_15">
    <!-- y维度1D切片幅度谱 -->
    <g style="fill: #262626" transform="translate(318 37.2) scale(0.12 -0.12)">
     <defs>
      <path id="SimHei-79" d="M 2900 2925 
L 1750 -100 
Q 1650 -450 1450 -625 
Q 1250 -800 950 -800 
Q 825 -800 712 -787 
Q 600 -775 500 -725 
L 500 -225 
Q 600 -275 700 -300 
Q 800 -325 875 -325 
Q 1075 -325 1150 -262 
Q 1225 -200 1300 25 
L 200 2925 
L 750 2925 
L 1550 725 
L 1575 725 
L 2350 2925 
L 2900 2925 
z
" transform="scale(0.015625)"/>
      <path id="SimHei-7ef4" d="M 3700 5075 
Q 3575 4900 3475 4637 
Q 3375 4375 3300 4150 
L 4900 4150 
Q 5400 4150 5800 4175 
L 5800 3725 
Q 5375 3750 4900 3750 
L 4650 3750 
L 4650 2900 
Q 5250 2900 5625 2925 
L 5625 2475 
Q 5250 2500 4650 2500 
L 4650 1600 
Q 5275 1600 5650 1625 
L 5650 1200 
Q 5275 1225 4650 1225 
L 4650 325 
L 5050 325 
Q 5550 325 6050 350 
L 6050 -75 
Q 5550 -50 5050 -50 
L 3250 -50 
L 3250 -625 
L 2775 -625 
Q 2800 -150 2800 650 
L 2800 3075 
Q 2650 2700 2475 2375 
Q 2225 2550 2050 2650 
Q 2275 2975 2450 3312 
Q 2625 3650 2837 4250 
Q 3050 4850 3100 5250 
Q 3375 5150 3700 5075 
z
M 1750 5000 
Q 1525 4775 1300 4225 
Q 1075 3675 825 3150 
Q 1175 3200 1525 3225 
Q 1775 3775 1825 4100 
L 2375 3900 
Q 2225 3725 1950 3200 
Q 1675 2675 1125 1575 
L 2250 1725 
Q 2150 1425 2125 1250 
Q 1800 1250 1387 1187 
Q 975 1125 575 1000 
Q 475 1300 425 1525 
Q 650 1625 875 1987 
Q 1100 2350 1325 2800 
Q 1050 2775 812 2737 
Q 575 2700 400 2625 
Q 325 2825 200 3125 
Q 425 3275 687 3875 
Q 950 4475 1150 5175 
Q 1425 5075 1750 5000 
z
M 2475 650 
Q 2450 400 2450 200 
Q 2000 125 1450 12 
Q 900 -100 450 -275 
Q 350 0 250 300 
Q 750 350 1187 412 
Q 1625 475 2475 650 
z
M 4200 1600 
L 4200 2500 
L 3250 2500 
L 3250 1600 
L 4200 1600 
z
M 4200 325 
L 4200 1225 
L 3250 1225 
L 3250 325 
L 4200 325 
z
M 4200 2900 
L 4200 3750 
L 3250 3750 
L 3250 2900 
L 4200 2900 
z
M 4500 5225 
Q 4600 5075 4900 4475 
Q 4700 4400 4475 4275 
Q 4350 4575 4100 4975 
L 4500 5225 
z
" transform="scale(0.015625)"/>
      <path id="SimHei-44" d="M 2925 2250 
Q 2925 1100 2437 612 
Q 1950 125 1125 125 
L 275 125 
L 275 4400 
L 1125 4400 
Q 2050 4400 2487 3900 
Q 2925 3400 2925 2250 
z
M 2325 2250 
Q 2325 3175 2025 3550 
Q 1725 3925 1125 3925 
L 850 3925 
L 850 600 
L 1125 600 
Q 1725 600 2025 962 
Q 2325 1325 2325 2250 
z
" transform="scale(0.015625)"/>
      <path id="SimHei-5207" d="M 4200 125 
Q 4875 125 5037 187 
Q 5200 250 5225 525 
L 5400 4175 
L 4250 4175 
Q 4275 2875 4075 1987 
Q 3875 1100 3500 575 
Q 3125 50 2425 -575 
Q 2275 -375 1900 -250 
Q 2550 200 2937 675 
Q 3325 1150 3550 1925 
Q 3775 2700 3750 4175 
Q 3200 4175 2700 4150 
L 2700 4600 
Q 3175 4575 3625 4575 
L 5900 4575 
Q 5875 4200 5850 3700 
L 5700 325 
Q 5625 -250 5312 -337 
Q 5000 -425 4450 -525 
Q 4400 -200 4200 125 
z
M 1175 4275 
Q 1175 4625 1150 5000 
L 1650 5000 
Q 1625 4625 1625 4300 
L 1625 3275 
Q 2150 3350 2700 3425 
Q 2725 3150 2750 2975 
Q 2325 2925 1625 2850 
L 1625 1050 
Q 2325 1475 2650 1750 
Q 2725 1550 2875 1300 
Q 2325 975 1225 200 
Q 1075 500 925 650 
Q 1175 850 1175 1125 
L 1175 2775 
Q 675 2725 325 2675 
Q 300 2975 275 3150 
Q 650 3175 1175 3225 
L 1175 4275 
z
" transform="scale(0.015625)"/>
      <path id="SimHei-7247" d="M 1900 5050 
Q 1850 4700 1850 3450 
L 3825 3450 
Q 3825 4850 3800 5225 
L 4375 5225 
Q 4350 4850 4350 3450 
Q 5300 3450 5850 3475 
L 5850 3025 
Q 5300 3050 5050 3050 
L 1850 3050 
Q 1850 2575 1825 2050 
L 4875 2050 
Q 4850 1475 4850 750 
Q 4850 25 4875 -600 
L 4325 -600 
Q 4350 0 4350 1625 
L 1775 1625 
Q 1700 1100 1450 450 
Q 1200 -200 875 -600 
Q 750 -400 350 -300 
Q 775 200 987 775 
Q 1200 1350 1275 2012 
Q 1350 2675 1350 3425 
Q 1350 4175 1325 5100 
Q 1575 5075 1900 5050 
z
" transform="scale(0.015625)"/>
      <path id="SimHei-8c31" d="M 5600 1850 
Q 5575 1375 5575 575 
Q 5575 -225 5600 -700 
L 5100 -700 
L 5100 -300 
L 3100 -300 
L 3100 -675 
L 2600 -675 
Q 2625 -125 2625 625 
Q 2625 1375 2600 1850 
L 5600 1850 
z
M 4350 4350 
Q 4625 4900 4725 5275 
Q 4975 5150 5275 5050 
Q 5075 4875 4825 4350 
Q 5650 4350 6050 4375 
L 6050 3975 
Q 5725 4000 4800 4000 
L 4800 2700 
Q 5575 2700 6175 2725 
L 6175 2325 
Q 5750 2350 5375 2350 
L 2750 2350 
Q 2275 2350 1875 2325 
L 1875 2725 
Q 2275 2700 3300 2700 
L 3300 4000 
Q 2475 4000 2100 3975 
L 2100 4375 
Q 2575 4350 3275 4350 
Q 3175 4550 2825 4950 
Q 3025 5100 3175 5250 
Q 3550 4825 3725 4600 
Q 3575 4475 3450 4350 
L 4350 4350 
z
M 2250 575 
Q 2025 400 1700 87 
Q 1375 -225 1175 -475 
Q 1050 -225 800 -100 
Q 1000 50 1000 275 
L 1000 2725 
Q 550 2725 225 2700 
L 225 3150 
Q 525 3125 725 3125 
L 1475 3125 
Q 1450 2725 1450 2350 
L 1450 450 
Q 1675 650 1950 1025 
Q 2025 850 2250 575 
z
M 5100 950 
L 5100 1475 
L 3100 1475 
L 3100 950 
L 5100 950 
z
M 5100 50 
L 5100 575 
L 3100 575 
L 3100 50 
L 5100 50 
z
M 4350 2700 
L 4350 4000 
L 3750 4000 
L 3750 2700 
L 4350 2700 
z
M 925 4975 
Q 1175 4700 1725 4150 
Q 1475 4000 1275 3800 
Q 900 4300 550 4650 
Q 700 4775 925 4975 
z
M 5850 3675 
Q 5525 3075 5375 2825 
Q 5175 2975 5000 3000 
Q 5250 3450 5375 3850 
Q 5625 3725 5850 3675 
z
M 2250 3600 
Q 2450 3675 2625 3800 
Q 2900 3425 3100 3100 
Q 2850 3000 2650 2875 
Q 2525 3225 2250 3600 
z
" transform="scale(0.015625)"/>
     </defs>
     <use xlink:href="#SimHei-79"/>
     <use xlink:href="#SimHei-7ef4" x="50"/>
     <use xlink:href="#SimHei-5ea6" x="150"/>
     <use xlink:href="#SimHei-31" x="250"/>
     <use xlink:href="#SimHei-44" x="300"/>
     <use xlink:href="#SimHei-5207" x="350"/>
     <use xlink:href="#SimHei-7247" x="450"/>
     <use xlink:href="#SimHei-5e45" x="550"/>
     <use xlink:href="#SimHei-5ea6" x="650"/>
     <use xlink:href="#SimHei-8c31" x="750"/>
    </g>
   </g>
  </g>
 </g>
 <defs>
  <clipPath id="p917669e93f">
   <rect x="90" y="43.2" width="558" height="277.2"/>
  </clipPath>
 </defs>
</svg>
