<?xml version="1.0" encoding="utf-8" standalone="no"?>
<!DOCTYPE svg PUBLIC "-//W3C//DTD SVG 1.1//EN"
  "http://www.w3.org/Graphics/SVG/1.1/DTD/svg11.dtd">
<svg xmlns:xlink="http://www.w3.org/1999/xlink" width="720pt" height="360pt" viewBox="0 0 720 360" xmlns="http://www.w3.org/2000/svg" version="1.1">
 <metadata>
  <rdf:RDF xmlns:dc="http://purl.org/dc/elements/1.1/" xmlns:cc="http://creativecommons.org/ns#" xmlns:rdf="http://www.w3.org/1999/02/22-rdf-syntax-ns#">
   <cc:Work>
    <dc:type rdf:resource="http://purl.org/dc/dcmitype/StillImage"/>
    <dc:date>2025-07-24T00:46:34.004219</dc:date>
    <dc:format>image/svg+xml</dc:format>
    <dc:creator>
     <cc:Agent>
      <dc:title>Matplotlib v3.7.5, https://matplotlib.org/</dc:title>
     </cc:Agent>
    </dc:creator>
   </cc:Work>
  </rdf:RDF>
 </metadata>
 <defs>
  <style type="text/css">*{stroke-linejoin: round; stroke-linecap: butt}</style>
 </defs>
 <g id="figure_1">
  <g id="patch_1">
   <path d="M 0 360 
L 720 360 
L 720 0 
L 0 0 
z
" style="fill: #ffffff"/>
  </g>
  <g id="axes_1">
   <g id="patch_2">
    <path d="M 42.1175 157.6825 
L 352.125 157.6825 
L 352.125 52.81125 
L 42.1175 52.81125 
z
" style="fill: #eaeaf2"/>
   </g>
   <g id="matplotlib.axis_1">
    <g id="xtick_1">
     <g id="line2d_1">
      <path d="M 56.20875 157.6825 
L 56.20875 52.81125 
" clip-path="url(#pc091a573eb)" style="fill: none; stroke: #ffffff; stroke-opacity: 0.3; stroke-linecap: round"/>
     </g>
     <g id="line2d_2"/>
     <g id="text_1">
      <!-- 0.00 -->
      <g style="fill: #262626" transform="translate(46.20875 171.5575) scale(0.1 -0.1)">
       <defs>
        <path id="SimHei-30" d="M 225 2537 
Q 250 3200 412 3587 
Q 575 3975 875 4225 
Q 1175 4475 1612 4475 
Q 2050 4475 2375 4112 
Q 2700 3750 2800 3200 
Q 2900 2650 2862 1937 
Q 2825 1225 2612 775 
Q 2400 325 1975 150 
Q 1550 -25 1125 187 
Q 700 400 525 750 
Q 350 1100 275 1487 
Q 200 1875 225 2537 
z
M 750 2687 
Q 675 2000 800 1462 
Q 925 925 1212 700 
Q 1500 475 1800 612 
Q 2100 750 2237 1162 
Q 2375 1575 2375 2062 
Q 2375 2550 2337 2950 
Q 2300 3350 2112 3675 
Q 1925 4000 1612 4012 
Q 1300 4025 1062 3700 
Q 825 3375 750 2687 
z
" transform="scale(0.015625)"/>
        <path id="SimHei-2e" d="M 1075 125 
L 500 125 
L 500 675 
L 1075 675 
L 1075 125 
z
" transform="scale(0.015625)"/>
       </defs>
       <use xlink:href="#SimHei-30"/>
       <use xlink:href="#SimHei-2e" x="50"/>
       <use xlink:href="#SimHei-30" x="100"/>
       <use xlink:href="#SimHei-30" x="150"/>
      </g>
     </g>
    </g>
    <g id="xtick_2">
     <g id="line2d_3">
      <path d="M 91.436875 157.6825 
L 91.436875 52.81125 
" clip-path="url(#pc091a573eb)" style="fill: none; stroke: #ffffff; stroke-opacity: 0.3; stroke-linecap: round"/>
     </g>
     <g id="line2d_4"/>
     <g id="text_2">
      <!-- 0.25 -->
      <g style="fill: #262626" transform="translate(81.436875 171.5575) scale(0.1 -0.1)">
       <defs>
        <path id="SimHei-32" d="M 300 250 
Q 325 625 650 925 
Q 975 1225 1475 1862 
Q 1975 2500 2125 2850 
Q 2275 3200 2237 3450 
Q 2200 3700 2000 3862 
Q 1800 4025 1537 4000 
Q 1275 3975 1037 3800 
Q 800 3625 675 3275 
L 200 3350 
Q 400 3925 712 4187 
Q 1025 4450 1450 4475 
Q 1700 4500 1900 4462 
Q 2100 4425 2312 4287 
Q 2525 4150 2662 3875 
Q 2800 3600 2762 3212 
Q 2725 2825 2375 2287 
Q 2025 1750 1025 600 
L 2825 600 
L 2825 150 
L 300 150 
L 300 250 
z
" transform="scale(0.015625)"/>
        <path id="SimHei-35" d="M 550 1325 
Q 725 650 1150 575 
Q 1575 500 1837 662 
Q 2100 825 2212 1087 
Q 2325 1350 2312 1675 
Q 2300 2000 2137 2225 
Q 1975 2450 1725 2525 
Q 1475 2600 1162 2525 
Q 850 2450 650 2175 
L 225 2225 
Q 275 2375 700 4375 
L 2675 4375 
L 2675 3925 
L 1075 3925 
Q 950 3250 825 2850 
Q 1200 3025 1525 3012 
Q 1850 3000 2150 2862 
Q 2450 2725 2587 2487 
Q 2725 2250 2787 2012 
Q 2850 1775 2837 1500 
Q 2825 1225 2725 937 
Q 2625 650 2425 462 
Q 2225 275 1937 162 
Q 1650 50 1275 75 
Q 900 100 562 350 
Q 225 600 100 1200 
L 550 1325 
z
" transform="scale(0.015625)"/>
       </defs>
       <use xlink:href="#SimHei-30"/>
       <use xlink:href="#SimHei-2e" x="50"/>
       <use xlink:href="#SimHei-32" x="100"/>
       <use xlink:href="#SimHei-35" x="150"/>
      </g>
     </g>
    </g>
    <g id="xtick_3">
     <g id="line2d_5">
      <path d="M 126.665 157.6825 
L 126.665 52.81125 
" clip-path="url(#pc091a573eb)" style="fill: none; stroke: #ffffff; stroke-opacity: 0.3; stroke-linecap: round"/>
     </g>
     <g id="line2d_6"/>
     <g id="text_3">
      <!-- 0.50 -->
      <g style="fill: #262626" transform="translate(116.665 171.5575) scale(0.1 -0.1)">
       <use xlink:href="#SimHei-30"/>
       <use xlink:href="#SimHei-2e" x="50"/>
       <use xlink:href="#SimHei-35" x="100"/>
       <use xlink:href="#SimHei-30" x="150"/>
      </g>
     </g>
    </g>
    <g id="xtick_4">
     <g id="line2d_7">
      <path d="M 161.893125 157.6825 
L 161.893125 52.81125 
" clip-path="url(#pc091a573eb)" style="fill: none; stroke: #ffffff; stroke-opacity: 0.3; stroke-linecap: round"/>
     </g>
     <g id="line2d_8"/>
     <g id="text_4">
      <!-- 0.75 -->
      <g style="fill: #262626" transform="translate(151.893125 171.5575) scale(0.1 -0.1)">
       <defs>
        <path id="SimHei-37" d="M 850 150 
Q 1300 2050 2425 3925 
L 275 3925 
L 275 4375 
L 2950 4375 
L 2950 3950 
Q 1775 2050 1400 150 
L 850 150 
z
" transform="scale(0.015625)"/>
       </defs>
       <use xlink:href="#SimHei-30"/>
       <use xlink:href="#SimHei-2e" x="50"/>
       <use xlink:href="#SimHei-37" x="100"/>
       <use xlink:href="#SimHei-35" x="150"/>
      </g>
     </g>
    </g>
    <g id="xtick_5">
     <g id="line2d_9">
      <path d="M 197.12125 157.6825 
L 197.12125 52.81125 
" clip-path="url(#pc091a573eb)" style="fill: none; stroke: #ffffff; stroke-opacity: 0.3; stroke-linecap: round"/>
     </g>
     <g id="line2d_10"/>
     <g id="text_5">
      <!-- 1.00 -->
      <g style="fill: #262626" transform="translate(187.12125 171.5575) scale(0.1 -0.1)">
       <defs>
        <path id="SimHei-31" d="M 1400 3600 
Q 1075 3275 575 2975 
L 575 3450 
Q 1200 3875 1600 4450 
L 1900 4450 
L 1900 150 
L 1400 150 
L 1400 3600 
z
" transform="scale(0.015625)"/>
       </defs>
       <use xlink:href="#SimHei-31"/>
       <use xlink:href="#SimHei-2e" x="50"/>
       <use xlink:href="#SimHei-30" x="100"/>
       <use xlink:href="#SimHei-30" x="150"/>
      </g>
     </g>
    </g>
    <g id="xtick_6">
     <g id="line2d_11">
      <path d="M 232.349375 157.6825 
L 232.349375 52.81125 
" clip-path="url(#pc091a573eb)" style="fill: none; stroke: #ffffff; stroke-opacity: 0.3; stroke-linecap: round"/>
     </g>
     <g id="line2d_12"/>
     <g id="text_6">
      <!-- 1.25 -->
      <g style="fill: #262626" transform="translate(222.349375 171.5575) scale(0.1 -0.1)">
       <use xlink:href="#SimHei-31"/>
       <use xlink:href="#SimHei-2e" x="50"/>
       <use xlink:href="#SimHei-32" x="100"/>
       <use xlink:href="#SimHei-35" x="150"/>
      </g>
     </g>
    </g>
    <g id="xtick_7">
     <g id="line2d_13">
      <path d="M 267.5775 157.6825 
L 267.5775 52.81125 
" clip-path="url(#pc091a573eb)" style="fill: none; stroke: #ffffff; stroke-opacity: 0.3; stroke-linecap: round"/>
     </g>
     <g id="line2d_14"/>
     <g id="text_7">
      <!-- 1.50 -->
      <g style="fill: #262626" transform="translate(257.5775 171.5575) scale(0.1 -0.1)">
       <use xlink:href="#SimHei-31"/>
       <use xlink:href="#SimHei-2e" x="50"/>
       <use xlink:href="#SimHei-35" x="100"/>
       <use xlink:href="#SimHei-30" x="150"/>
      </g>
     </g>
    </g>
    <g id="xtick_8">
     <g id="line2d_15">
      <path d="M 302.805625 157.6825 
L 302.805625 52.81125 
" clip-path="url(#pc091a573eb)" style="fill: none; stroke: #ffffff; stroke-opacity: 0.3; stroke-linecap: round"/>
     </g>
     <g id="line2d_16"/>
     <g id="text_8">
      <!-- 1.75 -->
      <g style="fill: #262626" transform="translate(292.805625 171.5575) scale(0.1 -0.1)">
       <use xlink:href="#SimHei-31"/>
       <use xlink:href="#SimHei-2e" x="50"/>
       <use xlink:href="#SimHei-37" x="100"/>
       <use xlink:href="#SimHei-35" x="150"/>
      </g>
     </g>
    </g>
    <g id="xtick_9">
     <g id="line2d_17">
      <path d="M 338.03375 157.6825 
L 338.03375 52.81125 
" clip-path="url(#pc091a573eb)" style="fill: none; stroke: #ffffff; stroke-opacity: 0.3; stroke-linecap: round"/>
     </g>
     <g id="line2d_18"/>
     <g id="text_9">
      <!-- 2.00 -->
      <g style="fill: #262626" transform="translate(328.03375 171.5575) scale(0.1 -0.1)">
       <use xlink:href="#SimHei-32"/>
       <use xlink:href="#SimHei-2e" x="50"/>
       <use xlink:href="#SimHei-30" x="100"/>
       <use xlink:href="#SimHei-30" x="150"/>
      </g>
     </g>
    </g>
    <g id="text_10">
     <!-- 时间 (s) -->
     <g style="fill: #262626" transform="translate(175.12125 185.616094) scale(0.11 -0.11)">
      <defs>
       <path id="SimHei-65f6" d="M 2525 4575 
Q 2500 3675 2500 2400 
Q 2500 1125 2525 400 
L 2000 400 
L 2000 875 
L 1000 875 
L 1000 50 
L 475 50 
Q 500 1200 500 2350 
Q 500 3525 475 4575 
L 2525 4575 
z
M 4875 3825 
Q 4875 4575 4850 5225 
L 5400 5225 
Q 5375 4575 5375 3825 
Q 5750 3825 6175 3850 
L 6175 3375 
Q 5750 3400 5375 3400 
L 5375 50 
Q 5375 -325 5075 -425 
Q 4775 -525 4300 -575 
Q 4300 -275 4025 0 
Q 4500 -50 4687 -25 
Q 4875 0 4875 300 
L 4875 3400 
Q 3625 3400 2775 3375 
L 2775 3850 
Q 3575 3825 4875 3825 
z
M 2000 1300 
L 2000 2550 
L 1000 2550 
L 1000 1300 
L 2000 1300 
z
M 2000 2975 
L 2000 4150 
L 1000 4150 
L 1000 2975 
L 2000 2975 
z
M 3550 2725 
Q 3875 2200 4175 1600 
Q 3925 1525 3650 1375 
Q 3450 1975 3075 2500 
Q 3300 2600 3550 2725 
z
" transform="scale(0.015625)"/>
       <path id="SimHei-95f4" d="M 4450 3550 
Q 4425 3075 4425 2725 
L 4425 1400 
Q 4425 1075 4450 625 
L 1925 625 
Q 1950 1075 1950 1425 
L 1950 2725 
Q 1950 3075 1925 3550 
L 4450 3550 
z
M 5800 4875 
Q 5775 4400 5775 3925 
L 5775 250 
Q 5800 -325 5462 -450 
Q 5125 -575 4725 -625 
Q 4700 -325 4525 -25 
Q 5000 -50 5137 25 
Q 5275 100 5275 350 
L 5275 4450 
L 3775 4450 
Q 3175 4450 2650 4425 
L 2650 4900 
Q 3175 4875 3775 4875 
L 5800 4875 
z
M 550 -525 
Q 600 -25 600 525 
L 600 3150 
Q 600 3675 550 4025 
L 1125 4025 
Q 1100 3650 1100 3300 
L 1100 500 
Q 1100 0 1125 -525 
L 550 -525 
z
M 3950 1025 
L 3950 1950 
L 2425 1950 
L 2425 1025 
L 3950 1025 
z
M 3950 2350 
L 3950 3150 
L 2425 3150 
L 2425 2350 
L 3950 2350 
z
M 1525 5300 
Q 1750 5000 2225 4350 
Q 1950 4225 1700 4075 
Q 1450 4575 1075 5025 
Q 1350 5225 1525 5300 
z
" transform="scale(0.015625)"/>
       <path id="SimHei-20" transform="scale(0.015625)"/>
       <path id="SimHei-28" d="M 2975 -200 
L 2700 -475 
Q 2075 125 1762 775 
Q 1450 1425 1450 2250 
Q 1450 3075 1762 3725 
Q 2075 4375 2700 5000 
L 2975 4725 
Q 2400 4175 2112 3587 
Q 1825 3000 1825 2250 
Q 1825 1500 2112 912 
Q 2400 325 2975 -200 
z
" transform="scale(0.015625)"/>
       <path id="SimHei-73" d="M 2750 900 
Q 2750 500 2437 287 
Q 2125 75 1650 75 
Q 1050 75 725 312 
Q 400 550 400 1000 
L 900 1000 
Q 900 700 1112 600 
Q 1325 500 1625 500 
Q 1925 500 2075 612 
Q 2225 725 2225 900 
Q 2225 1025 2100 1150 
Q 1975 1275 1475 1350 
Q 900 1425 687 1637 
Q 475 1850 475 2200 
Q 475 2500 762 2737 
Q 1050 2975 1600 2975 
Q 2100 2975 2387 2750 
Q 2675 2525 2675 2150 
L 2175 2150 
Q 2175 2375 2012 2462 
Q 1850 2550 1600 2550 
Q 1275 2550 1137 2437 
Q 1000 2325 1000 2175 
Q 1000 2000 1125 1900 
Q 1250 1800 1650 1750 
Q 2300 1650 2525 1437 
Q 2750 1225 2750 900 
z
" transform="scale(0.015625)"/>
       <path id="SimHei-29" d="M 1675 2250 
Q 1675 1425 1362 775 
Q 1050 125 425 -475 
L 150 -200 
Q 725 325 1012 912 
Q 1300 1500 1300 2250 
Q 1300 3000 1012 3587 
Q 725 4175 150 4725 
L 425 5000 
Q 1050 4375 1362 3725 
Q 1675 3075 1675 2250 
z
" transform="scale(0.015625)"/>
      </defs>
      <use xlink:href="#SimHei-65f6"/>
      <use xlink:href="#SimHei-95f4" x="100"/>
      <use xlink:href="#SimHei-20" x="200"/>
      <use xlink:href="#SimHei-28" x="250"/>
      <use xlink:href="#SimHei-73" x="300"/>
      <use xlink:href="#SimHei-29" x="350"/>
     </g>
    </g>
   </g>
   <g id="matplotlib.axis_2">
    <g id="ytick_1">
     <g id="line2d_19">
      <path d="M 42.1175 150.695329 
L 352.125 150.695329 
" clip-path="url(#pc091a573eb)" style="fill: none; stroke: #ffffff; stroke-opacity: 0.3; stroke-linecap: round"/>
     </g>
     <g id="line2d_20"/>
     <g id="text_11">
      <!-- -2 -->
      <g style="fill: #262626" transform="translate(25.1175 154.132829) scale(0.1 -0.1)">
       <defs>
        <path id="SimHei-2d" d="M 2975 2125 
L 125 2125 
L 125 2525 
L 2975 2525 
L 2975 2125 
z
" transform="scale(0.015625)"/>
       </defs>
       <use xlink:href="#SimHei-2d"/>
       <use xlink:href="#SimHei-32" x="50"/>
      </g>
     </g>
    </g>
    <g id="ytick_2">
     <g id="line2d_21">
      <path d="M 42.1175 128.514615 
L 352.125 128.514615 
" clip-path="url(#pc091a573eb)" style="fill: none; stroke: #ffffff; stroke-opacity: 0.3; stroke-linecap: round"/>
     </g>
     <g id="line2d_22"/>
     <g id="text_12">
      <!-- -1 -->
      <g style="fill: #262626" transform="translate(25.1175 131.952115) scale(0.1 -0.1)">
       <use xlink:href="#SimHei-2d"/>
       <use xlink:href="#SimHei-31" x="50"/>
      </g>
     </g>
    </g>
    <g id="ytick_3">
     <g id="line2d_23">
      <path d="M 42.1175 106.3339 
L 352.125 106.3339 
" clip-path="url(#pc091a573eb)" style="fill: none; stroke: #ffffff; stroke-opacity: 0.3; stroke-linecap: round"/>
     </g>
     <g id="line2d_24"/>
     <g id="text_13">
      <!-- 0 -->
      <g style="fill: #262626" transform="translate(30.1175 109.7714) scale(0.1 -0.1)">
       <use xlink:href="#SimHei-30"/>
      </g>
     </g>
    </g>
    <g id="ytick_4">
     <g id="line2d_25">
      <path d="M 42.1175 84.153185 
L 352.125 84.153185 
" clip-path="url(#pc091a573eb)" style="fill: none; stroke: #ffffff; stroke-opacity: 0.3; stroke-linecap: round"/>
     </g>
     <g id="line2d_26"/>
     <g id="text_14">
      <!-- 1 -->
      <g style="fill: #262626" transform="translate(30.1175 87.590685) scale(0.1 -0.1)">
       <use xlink:href="#SimHei-31"/>
      </g>
     </g>
    </g>
    <g id="ytick_5">
     <g id="line2d_27">
      <path d="M 42.1175 61.97247 
L 352.125 61.97247 
" clip-path="url(#pc091a573eb)" style="fill: none; stroke: #ffffff; stroke-opacity: 0.3; stroke-linecap: round"/>
     </g>
     <g id="line2d_28"/>
     <g id="text_15">
      <!-- 2 -->
      <g style="fill: #262626" transform="translate(30.1175 65.40997) scale(0.1 -0.1)">
       <use xlink:href="#SimHei-32"/>
      </g>
     </g>
    </g>
    <g id="text_16">
     <!-- 幅度 -->
     <g style="fill: #262626" transform="translate(19.7425 116.246875) rotate(-90) scale(0.11 -0.11)">
      <defs>
       <path id="SimHei-5e45" d="M 5950 2250 
Q 5925 1875 5925 900 
Q 5925 -50 5950 -425 
L 5450 -425 
L 5450 -175 
L 3350 -175 
L 3350 -475 
L 2875 -475 
Q 2900 200 2900 1025 
Q 2900 1875 2875 2250 
L 5950 2250 
z
M 2575 1125 
Q 2575 800 2437 700 
Q 2300 600 1950 525 
Q 1900 800 1750 1000 
Q 1975 1000 2075 1037 
Q 2175 1075 2175 1300 
L 2175 3725 
L 1700 3725 
L 1700 475 
Q 1700 0 1725 -550 
L 1225 -550 
Q 1250 -25 1250 475 
L 1250 3725 
L 850 3725 
L 850 500 
L 400 500 
Q 425 1000 425 2300 
Q 425 3600 400 4100 
L 1250 4100 
L 1250 4500 
Q 1250 4825 1225 5175 
L 1725 5175 
Q 1700 4825 1700 4500 
L 1700 4100 
L 2600 4100 
Q 2575 3900 2575 3225 
L 2575 1125 
z
M 5575 3925 
Q 5550 3625 5550 3300 
Q 5550 2975 5575 2600 
L 3200 2600 
Q 3225 2975 3225 3300 
Q 3225 3625 3200 3925 
L 5575 3925 
z
M 5250 4800 
Q 5650 4800 6025 4825 
L 6025 4375 
Q 5650 4400 5250 4400 
L 3550 4400 
Q 3075 4400 2800 4375 
L 2800 4825 
Q 3075 4800 3550 4800 
L 5250 4800 
z
M 5150 2975 
L 5150 3575 
L 3625 3575 
L 3625 2975 
L 5150 2975 
z
M 5450 1225 
L 5450 1875 
L 4625 1875 
L 4625 1225 
L 5450 1225 
z
M 4175 200 
L 4175 850 
L 3350 850 
L 3350 200 
L 4175 200 
z
M 5450 200 
L 5450 850 
L 4625 850 
L 4625 200 
L 5450 200 
z
M 4175 1225 
L 4175 1875 
L 3350 1875 
L 3350 1225 
L 4175 1225 
z
" transform="scale(0.015625)"/>
       <path id="SimHei-5ea6" d="M 1750 1675 
Q 2450 1650 2875 1650 
L 5200 1650 
Q 4975 1250 4650 850 
Q 4325 450 4025 200 
Q 4350 50 4950 -50 
Q 5550 -150 6100 -150 
Q 5950 -300 5825 -650 
Q 5100 -550 4550 -412 
Q 4000 -275 3625 -100 
Q 3100 -325 2587 -462 
Q 2075 -600 1525 -675 
Q 1450 -475 1225 -250 
Q 1675 -250 2250 -125 
Q 2825 0 3250 200 
Q 2825 550 2400 1275 
L 1750 1250 
L 1750 1675 
z
M 2975 5075 
Q 3250 5150 3475 5250 
Q 3625 4975 3775 4525 
L 4700 4525 
Q 4975 4525 5700 4550 
L 5700 4100 
Q 5000 4125 4650 4125 
L 1375 4125 
Q 1375 3000 1350 2312 
Q 1325 1625 1212 950 
Q 1100 275 725 -525 
Q 500 -375 250 -300 
Q 650 400 762 1075 
Q 875 1750 887 2800 
Q 900 3850 875 4525 
L 3200 4525 
Q 3100 4850 2975 5075 
z
M 2475 3300 
Q 2475 3700 2450 3925 
L 2975 3925 
Q 2950 3725 2950 3300 
L 4300 3300 
Q 4300 3700 4275 3950 
L 4800 3950 
Q 4775 3650 4775 3300 
Q 5325 3300 5725 3325 
L 5725 2900 
Q 5350 2925 4775 2925 
Q 4775 2250 4800 1950 
L 2450 1950 
Q 2475 2350 2475 2925 
Q 2175 2925 1600 2900 
L 1600 3325 
Q 2175 3300 2475 3300 
z
M 4300 2350 
L 4300 2925 
L 2950 2925 
L 2950 2350 
L 4300 2350 
z
M 2875 1275 
Q 3200 775 3650 425 
Q 4025 700 4425 1275 
L 2900 1275 
L 2875 1275 
z
" transform="scale(0.015625)"/>
      </defs>
      <use xlink:href="#SimHei-5e45"/>
      <use xlink:href="#SimHei-5ea6" x="100"/>
     </g>
    </g>
   </g>
   <g id="line2d_29">
    <path d="M 56.20875 109.211755 
L 57.311783 94.171729 
L 57.8633 87.540746 
L 58.414817 84.088253 
L 58.966333 79.02754 
L 59.51785 80.19248 
L 60.069366 80.193017 
L 60.620883 73.905536 
L 61.1724 78.73905 
L 61.723916 79.214944 
L 62.275433 77.771118 
L 62.82695 78.737673 
L 63.378466 86.70481 
L 63.929983 88.114613 
L 64.4815 79.289665 
L 65.033016 81.504363 
L 65.584533 80.752598 
L 66.136049 83.755553 
L 66.687566 80.038747 
L 67.239083 84.349439 
L 67.790599 84.42647 
L 68.342116 85.750707 
L 68.893633 89.362833 
L 69.445149 91.902526 
L 69.996666 97.74702 
L 70.548182 100.077869 
L 71.099699 106.201161 
L 71.651216 106.55167 
L 72.202732 106.248357 
L 72.754249 109.466465 
L 73.305766 111.452114 
L 73.857282 104.895804 
L 74.408799 106.137673 
L 74.960316 100.186539 
L 75.511832 99.587398 
L 76.614865 87.607424 
L 77.166382 91.071353 
L 77.717899 84.924082 
L 78.269415 85.082225 
L 78.820932 90.172683 
L 79.372449 87.146337 
L 79.923965 94.445014 
L 80.475482 95.886834 
L 81.026999 101.187239 
L 81.578515 105.299684 
L 82.130032 101.75405 
L 82.681548 108.412064 
L 83.233065 109.937894 
L 83.784582 110.153376 
L 84.336098 109.450502 
L 84.887615 112.963761 
L 85.439132 114.738951 
L 85.990648 117.313886 
L 86.542165 115.729538 
L 87.093682 123.745085 
L 87.645198 127.693446 
L 88.196715 134.655353 
L 88.748231 136.324984 
L 89.299748 144.462672 
L 89.851265 145.633236 
L 90.954298 149.433214 
L 91.505815 149.523668 
L 92.057331 152.915625 
L 92.608848 144.518564 
L 93.160364 141.963951 
L 93.711881 142.916259 
L 94.263398 132.72103 
L 94.814914 131.356327 
L 95.917948 119.08673 
L 96.469464 118.182395 
L 97.020981 118.415559 
L 97.572498 107.193833 
L 98.124014 116.248651 
L 98.675531 109.139242 
L 99.227047 110.030479 
L 99.778564 111.845912 
L 100.330081 105.006368 
L 100.881597 99.884941 
L 101.433114 103.677581 
L 101.984631 96.697805 
L 102.536147 96.024448 
L 103.087664 95.038305 
L 103.639181 93.076931 
L 104.742214 85.63902 
L 105.29373 88.54925 
L 105.845247 87.834838 
L 106.396764 90.466362 
L 106.94828 91.585966 
L 107.499797 100.043393 
L 108.051314 100.021739 
L 108.60283 98.673115 
L 109.154347 105.928904 
L 109.705864 108.209145 
L 110.25738 110.012695 
L 110.808897 104.429345 
L 111.360413 103.571101 
L 111.91193 103.79107 
L 112.463447 101.708066 
L 113.014963 93.139382 
L 113.56648 94.558793 
L 114.669513 84.172869 
L 115.22103 86.66598 
L 115.772546 83.637923 
L 116.324063 82.952301 
L 116.87558 81.718772 
L 117.427096 83.207723 
L 117.978613 82.665109 
L 118.53013 81.444198 
L 119.081646 84.26049 
L 119.633163 82.389243 
L 120.18468 82.132668 
L 120.736196 82.644892 
L 121.287713 80.105437 
L 121.839229 79.70345 
L 122.390746 81.002266 
L 122.942263 79.753647 
L 123.493779 77.186783 
L 124.045296 83.985028 
L 124.596813 85.596423 
L 125.148329 90.494665 
L 125.699846 96.679989 
L 126.251363 101.122804 
L 127.354396 114.69885 
L 127.905912 119.593394 
L 128.457429 128.367763 
L 129.008946 128.164184 
L 129.560462 136.911834 
L 130.111979 135.973513 
L 130.663496 135.971075 
L 131.215012 133.756525 
L 131.766529 132.25511 
L 132.318045 130.28784 
L 132.869562 132.888058 
L 133.421079 132.847891 
L 133.972595 131.651057 
L 134.524112 129.215578 
L 135.075629 129.895869 
L 135.627145 131.959291 
L 136.178662 130.472563 
L 136.730179 127.892033 
L 137.833212 129.994507 
L 138.384728 130.220026 
L 138.936245 121.009031 
L 139.487762 121.355314 
L 140.039278 116.213509 
L 140.590795 113.67221 
L 141.142312 112.046009 
L 141.693828 107.577455 
L 142.245345 106.846282 
L 142.796862 103.974193 
L 143.348378 105.091457 
L 143.899895 107.566747 
L 144.451411 104.486486 
L 145.002928 111.852431 
L 145.554445 114.698063 
L 146.105961 118.286291 
L 146.657478 122.835278 
L 147.208995 123.102957 
L 147.760511 127.297229 
L 148.312028 123.860007 
L 148.863545 127.187885 
L 149.415061 122.873158 
L 149.966578 117.275632 
L 150.518094 113.269773 
L 151.069611 112.270892 
L 151.621128 113.535819 
L 152.172644 107.924323 
L 152.724161 105.202065 
L 153.275678 107.015313 
L 153.827194 103.667277 
L 154.378711 106.901056 
L 154.930227 101.68803 
L 155.481744 100.477658 
L 156.584777 100.609384 
L 157.136294 92.519865 
L 157.687811 89.654772 
L 158.239327 89.529897 
L 158.790844 78.780677 
L 159.342361 76.55022 
L 159.893877 69.938173 
L 160.445394 68.884604 
L 161.548427 61.192912 
L 162.099944 62.512503 
L 162.65146 64.632078 
L 163.202977 61.567493 
L 164.30601 74.382342 
L 164.857527 78.259814 
L 165.409044 83.927898 
L 165.96056 88.209957 
L 166.512077 95.897248 
L 167.063593 100.679563 
L 167.61511 99.723171 
L 168.166627 100.557533 
L 168.718143 103.078691 
L 169.26966 102.046849 
L 169.821177 108.451687 
L 170.372693 108.116814 
L 170.92421 104.057964 
L 171.475727 109.937114 
L 172.027243 112.262307 
L 172.57876 111.590271 
L 173.130276 119.450754 
L 173.681793 116.909751 
L 174.23331 120.926079 
L 174.784826 123.580673 
L 175.336343 125.283394 
L 175.88786 126.175693 
L 176.439376 123.314543 
L 176.990893 119.154874 
L 178.093926 117.363419 
L 178.645443 113.245564 
L 179.196959 107.861329 
L 179.748476 107.61911 
L 180.299993 102.656076 
L 180.851509 107.984605 
L 181.403026 104.401657 
L 181.954543 107.099639 
L 182.506059 104.785852 
L 183.057576 109.693435 
L 183.609092 119.112543 
L 184.160609 122.430955 
L 184.712126 122.656884 
L 185.263642 125.142318 
L 185.815159 126.214107 
L 186.366676 129.710306 
L 186.918192 134.702239 
L 187.469709 128.200877 
L 188.021226 128.898249 
L 188.572742 132.030775 
L 189.124259 130.538373 
L 189.675775 125.395838 
L 190.227292 130.52478 
L 190.778809 130.005639 
L 191.881842 132.625798 
L 192.433359 137.28478 
L 192.984875 134.365893 
L 193.536392 136.005251 
L 194.087909 131.123997 
L 194.639425 131.751577 
L 195.742458 123.832221 
L 196.293975 115.509887 
L 196.845492 110.588557 
L 197.397008 104.034103 
L 197.948525 101.136921 
L 198.500042 89.262135 
L 199.051558 84.810118 
L 199.603075 82.659805 
L 200.154591 79.299966 
L 200.706108 78.569024 
L 201.257625 80.477474 
L 201.809141 79.34626 
L 202.360658 81.45381 
L 202.912175 82.336206 
L 203.463691 84.944755 
L 204.015208 83.474734 
L 204.566725 79.582684 
L 205.118241 83.379386 
L 205.669758 84.546739 
L 206.221274 83.22212 
L 207.324308 78.955654 
L 207.875824 82.268204 
L 208.978858 84.345885 
L 209.530374 91.763127 
L 210.081891 95.269671 
L 210.633408 96.326757 
L 211.184924 100.627638 
L 211.736441 106.147114 
L 212.287957 108.358737 
L 212.839474 103.965535 
L 213.390991 111.0373 
L 213.942507 110.988856 
L 215.045541 103.061767 
L 215.597057 103.433825 
L 217.251607 85.245652 
L 217.803124 85.281892 
L 218.35464 89.350361 
L 218.906157 87.460562 
L 219.457674 89.366934 
L 220.00919 92.060016 
L 220.560707 91.59094 
L 221.112224 98.281054 
L 221.66374 99.697508 
L 222.215257 99.802788 
L 222.766773 105.574735 
L 223.31829 105.663029 
L 223.869807 107.143973 
L 224.421323 106.549622 
L 224.97284 112.223096 
L 225.524357 110.675732 
L 226.075873 109.725514 
L 226.62739 115.403322 
L 227.178907 118.775784 
L 227.730423 121.167111 
L 228.28194 121.404566 
L 228.833456 128.187418 
L 229.384973 132.567529 
L 229.93649 140.723938 
L 230.488006 139.758486 
L 231.039523 147.789975 
L 232.142556 149.232156 
L 232.694073 151.66781 
L 233.24559 145.706254 
L 233.797106 146.837606 
L 234.348623 140.764021 
L 234.900139 138.826879 
L 235.451656 127.555067 
L 236.003173 128.702066 
L 236.554689 124.429135 
L 237.106206 118.910778 
L 237.657723 115.208449 
L 238.209239 115.127558 
L 238.760756 110.346685 
L 239.312273 112.517512 
L 239.863789 108.146925 
L 240.415306 105.472149 
L 240.966822 109.390284 
L 241.518339 107.912619 
L 242.069856 103.690913 
L 242.621372 95.622757 
L 243.172889 100.782686 
L 244.275922 94.308352 
L 244.827439 85.465315 
L 245.378955 88.613388 
L 245.930472 85.575715 
L 246.481989 89.398886 
L 247.033505 88.123873 
L 247.585022 92.933087 
L 248.136539 98.88393 
L 248.688055 101.294658 
L 249.239572 99.816838 
L 249.791089 105.815525 
L 250.894122 109.255887 
L 251.445638 107.250829 
L 251.997155 107.74842 
L 253.100188 100.17804 
L 253.651705 98.70038 
L 254.203222 94.021386 
L 254.754738 93.122866 
L 255.306255 92.000213 
L 255.857772 83.425312 
L 256.409288 82.683301 
L 256.960805 82.832891 
L 257.512321 80.516557 
L 258.063838 81.997753 
L 258.615355 80.361163 
L 259.166871 82.215208 
L 259.718388 85.781661 
L 260.269905 79.00723 
L 260.821421 81.289418 
L 261.372938 80.148955 
L 261.924455 80.243364 
L 262.475971 81.214202 
L 263.027488 81.236886 
L 263.579004 75.130823 
L 264.130521 76.6063 
L 264.682038 80.320129 
L 265.233554 82.32472 
L 265.785071 92.486958 
L 266.336588 90.207292 
L 266.888104 97.962275 
L 267.439621 102.975556 
L 268.542654 118.341193 
L 269.094171 121.91036 
L 270.197204 134.145125 
L 270.748721 135.760934 
L 271.300237 135.451765 
L 271.851754 138.825903 
L 272.403271 133.862884 
L 272.954787 134.385417 
L 273.506304 130.382419 
L 274.05782 129.345956 
L 274.609337 130.141897 
L 275.160854 128.351063 
L 275.71237 130.645758 
L 276.263887 128.800658 
L 276.815404 129.550435 
L 277.36692 132.332467 
L 277.918437 128.842727 
L 278.469954 127.312957 
L 279.02147 127.686097 
L 279.572987 127.726667 
L 280.124503 122.066926 
L 280.67602 115.18789 
L 281.227537 116.019225 
L 281.779053 112.557229 
L 282.33057 106.528635 
L 282.882087 106.546277 
L 283.433603 108.842691 
L 283.98512 101.818655 
L 284.536636 105.733949 
L 285.088153 106.178177 
L 285.63967 107.146948 
L 286.191186 111.717877 
L 286.742703 114.116436 
L 287.29422 119.647229 
L 287.845736 118.673015 
L 288.397253 123.331777 
L 288.94877 120.710077 
L 289.500286 122.935973 
L 290.051803 123.00347 
L 290.603319 119.090821 
L 291.154836 118.939388 
L 291.706353 114.855705 
L 292.257869 114.030152 
L 292.809386 108.936769 
L 293.360903 110.536267 
L 293.912419 104.707737 
L 294.463936 102.885221 
L 295.015453 105.991227 
L 295.566969 101.665255 
L 296.118486 103.870513 
L 296.670002 96.911246 
L 297.221519 101.69048 
L 297.773036 93.035461 
L 298.324552 91.832582 
L 299.979102 79.283721 
L 300.530619 69.989657 
L 301.082136 63.49327 
L 301.633652 61.943649 
L 302.185169 57.578125 
L 302.736685 63.737597 
L 303.288202 63.077679 
L 303.839719 68.170513 
L 304.391235 66.371549 
L 304.942752 77.112339 
L 305.494269 79.767164 
L 306.597302 88.395409 
L 307.148818 90.025015 
L 307.700335 93.324676 
L 308.251852 94.233969 
L 308.803368 96.908648 
L 309.354885 103.967132 
L 309.906402 104.491291 
L 310.457918 100.801873 
L 311.009435 107.301124 
L 311.560952 106.588104 
L 312.663985 109.071344 
L 313.215501 111.769537 
L 313.767018 112.761188 
L 314.318535 117.648084 
L 314.870051 120.490873 
L 315.421568 121.342582 
L 315.973085 125.023154 
L 316.524601 125.172431 
L 317.076118 123.561556 
L 317.627635 124.584527 
L 318.179151 120.165044 
L 318.730668 117.624426 
L 319.282184 106.391727 
L 319.833701 108.289089 
L 320.385218 108.298002 
L 320.936734 103.746838 
L 321.488251 102.545465 
L 322.039768 99.549822 
L 322.591284 108.245277 
L 323.142801 106.907407 
L 323.694318 110.131801 
L 324.245834 116.775337 
L 325.348867 120.543187 
L 325.900384 126.603627 
L 327.003417 127.379357 
L 327.554934 126.910738 
L 328.106451 132.962504 
L 328.657967 131.04225 
L 329.209484 135.890627 
L 329.761 132.272352 
L 330.312517 131.022892 
L 330.864034 133.77422 
L 331.41555 126.671978 
L 331.967067 132.773064 
L 332.518584 134.832088 
L 333.0701 134.897285 
L 333.621617 136.367126 
L 334.173134 134.069584 
L 334.72465 136.180198 
L 335.276167 130.821072 
L 335.827683 127.011906 
L 336.3792 124.05409 
L 336.930717 117.008241 
L 337.482233 115.21466 
L 338.03375 110.544605 
L 338.03375 110.544605 
" clip-path="url(#pc091a573eb)" style="fill: none; stroke: #0000ff; stroke-width: 2; stroke-linecap: round"/>
   </g>
   <g id="patch_3">
    <path d="M 42.1175 157.6825 
L 42.1175 52.81125 
" style="fill: none"/>
   </g>
   <g id="patch_4">
    <path d="M 352.125 157.6825 
L 352.125 52.81125 
" style="fill: none"/>
   </g>
   <g id="patch_5">
    <path d="M 42.1175 157.6825 
L 352.125 157.6825 
" style="fill: none"/>
   </g>
   <g id="patch_6">
    <path d="M 42.1175 52.81125 
L 352.125 52.81125 
" style="fill: none"/>
   </g>
   <g id="text_17">
    <!-- 时域信号 -->
    <g style="fill: #262626" transform="translate(173.12125 46.81125) scale(0.12 -0.12)">
     <defs>
      <path id="SimHei-57df" d="M 4550 5100 
Q 4475 4775 4500 4150 
L 5025 4150 
Q 5450 4150 5950 4175 
L 5950 3700 
Q 5475 3725 5025 3725 
L 4525 3725 
Q 4550 3050 4600 2462 
Q 4650 1875 4775 1275 
Q 4975 1850 5050 2275 
Q 5125 2700 5175 3200 
Q 5425 3075 5750 3000 
Q 5675 2875 5537 2337 
Q 5400 1800 5287 1450 
Q 5175 1100 5025 700 
Q 5125 450 5312 237 
Q 5500 25 5587 212 
Q 5675 400 5750 700 
Q 5900 525 6200 400 
Q 6000 -100 5800 -337 
Q 5600 -575 5250 -325 
Q 4900 -75 4725 300 
Q 4575 75 4362 -175 
Q 4150 -425 3875 -650 
Q 3750 -525 3400 -325 
Q 3750 -150 4037 162 
Q 4325 475 4475 775 
Q 4350 1175 4287 1512 
Q 4225 1850 4162 2450 
Q 4100 3050 4075 3725 
L 3150 3725 
Q 2525 3725 1975 3700 
L 1975 4175 
Q 2525 4150 3150 4150 
L 4050 4150 
Q 4025 4600 3950 5175 
Q 4250 5125 4550 5100 
z
M 975 4250 
Q 975 4800 950 5100 
L 1450 5100 
Q 1425 4750 1425 4250 
L 1425 3325 
Q 1625 3325 2000 3350 
L 2000 2900 
Q 1625 2925 1425 2925 
L 1425 1000 
Q 1550 1075 2000 1275 
Q 1975 1075 2000 775 
Q 1675 625 1200 425 
Q 725 225 500 50 
Q 375 325 250 575 
Q 475 625 662 687 
Q 850 750 975 825 
L 975 2925 
Q 625 2925 300 2900 
L 300 3350 
Q 600 3325 975 3325 
L 975 4250 
z
M 3800 1750 
Q 3800 1425 3825 1150 
L 2225 1150 
Q 2250 1375 2250 1575 
L 2250 2525 
Q 2250 2825 2225 3075 
L 3825 3075 
Q 3800 2875 3800 2675 
L 3800 1750 
z
M 1900 225 
Q 2300 300 2850 462 
Q 3400 625 3825 800 
Q 3800 600 3800 350 
Q 3500 250 3012 75 
Q 2525 -100 2125 -275 
Q 2025 -25 1900 225 
z
M 3350 1525 
L 3350 2700 
L 2725 2700 
L 2725 1525 
L 3350 1525 
z
M 5300 4325 
Q 5150 4625 4900 4925 
Q 5050 5050 5250 5150 
Q 5450 4900 5700 4575 
Q 5475 4475 5300 4325 
z
" transform="scale(0.015625)"/>
      <path id="SimHei-4fe1" d="M 5650 1575 
Q 5625 1275 5625 575 
Q 5625 -100 5650 -450 
L 5175 -450 
L 5175 -25 
L 3025 -25 
L 3025 -550 
L 2525 -550 
Q 2550 -175 2550 500 
Q 2550 1200 2525 1575 
L 5650 1575 
z
M 2125 4975 
Q 1975 4825 1650 3975 
L 1650 550 
Q 1650 -200 1675 -625 
L 1125 -625 
Q 1200 -175 1200 575 
L 1200 3100 
Q 900 2500 625 2100 
Q 475 2350 250 2500 
Q 525 2800 925 3562 
Q 1325 4325 1525 5175 
Q 1800 5075 2125 4975 
z
M 5175 375 
L 5175 1225 
L 3025 1225 
L 3025 375 
L 5175 375 
z
M 6075 3900 
Q 5575 3925 4100 3925 
Q 2625 3925 2100 3900 
L 2100 4325 
L 6075 4325 
L 6075 3900 
z
M 5700 3000 
Q 5275 3025 4150 3025 
Q 3025 3025 2475 3000 
L 2475 3425 
Q 2950 3400 4100 3400 
Q 5275 3400 5700 3425 
L 5700 3000 
z
M 5700 2125 
Q 5350 2150 4175 2150 
Q 3025 2150 2475 2125 
L 2475 2550 
Q 3000 2525 4175 2525 
Q 5375 2525 5700 2550 
L 5700 2125 
z
M 4025 5200 
Q 4100 5050 4175 4875 
Q 4250 4700 4325 4500 
Q 4100 4425 3875 4375 
Q 3700 4900 3575 5025 
Q 3825 5125 4025 5200 
z
" transform="scale(0.015625)"/>
      <path id="SimHei-53f7" d="M 5025 4925 
Q 5000 4550 5000 4075 
Q 5000 3600 5025 3175 
L 1400 3175 
Q 1425 3525 1425 4000 
Q 1425 4500 1400 4925 
L 5025 4925 
z
M 5175 2625 
Q 5650 2625 6025 2650 
L 6025 2200 
Q 5650 2225 5175 2225 
L 2450 2225 
Q 2350 1875 2225 1450 
L 5175 1450 
Q 5100 1050 5062 775 
Q 5025 500 4950 112 
Q 4875 -275 4650 -412 
Q 4425 -550 3225 -625 
Q 3125 -350 2975 -50 
Q 3875 -75 4112 -50 
Q 4350 -25 4425 212 
Q 4500 450 4575 1025 
L 1600 1025 
Q 1825 1625 1950 2225 
L 1350 2225 
Q 825 2225 375 2200 
L 375 2650 
Q 825 2625 1350 2625 
L 5175 2625 
z
M 4525 3575 
L 4525 4525 
L 1900 4525 
L 1900 3575 
L 4525 3575 
z
" transform="scale(0.015625)"/>
     </defs>
     <use xlink:href="#SimHei-65f6"/>
     <use xlink:href="#SimHei-57df" x="100"/>
     <use xlink:href="#SimHei-4fe1" x="200"/>
     <use xlink:href="#SimHei-53f7" x="300"/>
    </g>
   </g>
  </g>
  <g id="axes_2">
   <g id="patch_7">
    <path d="M 399.1925 157.6825 
L 709.2 157.6825 
L 709.2 52.81125 
L 399.1925 52.81125 
z
" style="fill: #eaeaf2"/>
   </g>
   <g id="matplotlib.axis_3">
    <g id="xtick_10">
     <g id="line2d_30">
      <path d="M 413.28375 157.6825 
L 413.28375 52.81125 
" clip-path="url(#p4e07860773)" style="fill: none; stroke: #ffffff; stroke-opacity: 0.3; stroke-linecap: round"/>
     </g>
     <g id="line2d_31"/>
     <g id="text_18">
      <!-- 0 -->
      <g style="fill: #262626" transform="translate(410.78375 171.5575) scale(0.1 -0.1)">
       <use xlink:href="#SimHei-30"/>
      </g>
     </g>
    </g>
    <g id="xtick_11">
     <g id="line2d_32">
      <path d="M 457.491593 157.6825 
L 457.491593 52.81125 
" clip-path="url(#p4e07860773)" style="fill: none; stroke: #ffffff; stroke-opacity: 0.3; stroke-linecap: round"/>
     </g>
     <g id="line2d_33"/>
     <g id="text_19">
      <!-- 20 -->
      <g style="fill: #262626" transform="translate(452.491593 171.5575) scale(0.1 -0.1)">
       <use xlink:href="#SimHei-32"/>
       <use xlink:href="#SimHei-30" x="50"/>
      </g>
     </g>
    </g>
    <g id="xtick_12">
     <g id="line2d_34">
      <path d="M 501.699436 157.6825 
L 501.699436 52.81125 
" clip-path="url(#p4e07860773)" style="fill: none; stroke: #ffffff; stroke-opacity: 0.3; stroke-linecap: round"/>
     </g>
     <g id="line2d_35"/>
     <g id="text_20">
      <!-- 40 -->
      <g style="fill: #262626" transform="translate(496.699436 171.5575) scale(0.1 -0.1)">
       <defs>
        <path id="SimHei-34" d="M 2000 1100 
L 75 1100 
L 75 1525 
L 2100 4450 
L 2475 4450 
L 2475 1525 
L 3075 1525 
L 3075 1100 
L 2475 1100 
L 2475 150 
L 2000 150 
L 2000 1100 
z
M 2000 1525 
L 2000 3500 
L 600 1525 
L 2000 1525 
z
" transform="scale(0.015625)"/>
       </defs>
       <use xlink:href="#SimHei-34"/>
       <use xlink:href="#SimHei-30" x="50"/>
      </g>
     </g>
    </g>
    <g id="xtick_13">
     <g id="line2d_36">
      <path d="M 545.907279 157.6825 
L 545.907279 52.81125 
" clip-path="url(#p4e07860773)" style="fill: none; stroke: #ffffff; stroke-opacity: 0.3; stroke-linecap: round"/>
     </g>
     <g id="line2d_37"/>
     <g id="text_21">
      <!-- 60 -->
      <g style="fill: #262626" transform="translate(540.907279 171.5575) scale(0.1 -0.1)">
       <defs>
        <path id="SimHei-36" d="M 250 1612 
Q 275 1975 387 2225 
Q 500 2475 725 2850 
L 1750 4450 
L 2325 4450 
L 1275 2800 
Q 1950 2975 2350 2750 
Q 2750 2525 2887 2237 
Q 3025 1950 3037 1612 
Q 3050 1275 2937 950 
Q 2825 625 2537 362 
Q 2250 100 1737 75 
Q 1225 50 862 262 
Q 500 475 362 862 
Q 225 1250 250 1612 
z
M 1025 787 
Q 1250 550 1625 525 
Q 2000 500 2250 775 
Q 2500 1050 2500 1575 
Q 2500 2100 2187 2300 
Q 1875 2500 1487 2450 
Q 1100 2400 925 2075 
Q 750 1750 775 1387 
Q 800 1025 1025 787 
z
" transform="scale(0.015625)"/>
       </defs>
       <use xlink:href="#SimHei-36"/>
       <use xlink:href="#SimHei-30" x="50"/>
      </g>
     </g>
    </g>
    <g id="xtick_14">
     <g id="line2d_38">
      <path d="M 590.115123 157.6825 
L 590.115123 52.81125 
" clip-path="url(#p4e07860773)" style="fill: none; stroke: #ffffff; stroke-opacity: 0.3; stroke-linecap: round"/>
     </g>
     <g id="line2d_39"/>
     <g id="text_22">
      <!-- 80 -->
      <g style="fill: #262626" transform="translate(585.115123 171.5575) scale(0.1 -0.1)">
       <defs>
        <path id="SimHei-38" d="M 175 1375 
Q 175 1675 325 1962 
Q 475 2250 825 2425 
Q 525 2600 425 2812 
Q 325 3025 312 3300 
Q 300 3575 387 3775 
Q 475 3975 650 4150 
Q 825 4325 1037 4387 
Q 1250 4450 1500 4450 
Q 1750 4450 1950 4400 
Q 2150 4350 2375 4187 
Q 2600 4025 2700 3725 
Q 2800 3425 2687 3025 
Q 2575 2625 2100 2400 
Q 2525 2275 2700 2012 
Q 2875 1750 2875 1375 
Q 2875 1000 2762 775 
Q 2650 550 2512 400 
Q 2375 250 2137 162 
Q 1900 75 1537 75 
Q 1175 75 912 162 
Q 650 250 475 425 
Q 300 600 237 837 
Q 175 1075 175 1375 
z
M 687 1400 
Q 675 1100 787 875 
Q 900 650 1200 587 
Q 1500 525 1825 600 
Q 2150 675 2275 950 
Q 2400 1225 2362 1500 
Q 2325 1775 2050 1962 
Q 1775 2150 1450 2125 
Q 1125 2100 912 1900 
Q 700 1700 687 1400 
z
M 775 3350 
Q 775 3100 950 2875 
Q 1125 2650 1500 2650 
Q 1875 2650 2062 2875 
Q 2250 3100 2237 3412 
Q 2225 3725 2012 3875 
Q 1800 4025 1437 4000 
Q 1075 3975 925 3787 
Q 775 3600 775 3350 
z
" transform="scale(0.015625)"/>
       </defs>
       <use xlink:href="#SimHei-38"/>
       <use xlink:href="#SimHei-30" x="50"/>
      </g>
     </g>
    </g>
    <g id="xtick_15">
     <g id="line2d_40">
      <path d="M 634.322966 157.6825 
L 634.322966 52.81125 
" clip-path="url(#p4e07860773)" style="fill: none; stroke: #ffffff; stroke-opacity: 0.3; stroke-linecap: round"/>
     </g>
     <g id="line2d_41"/>
     <g id="text_23">
      <!-- 100 -->
      <g style="fill: #262626" transform="translate(626.822966 171.5575) scale(0.1 -0.1)">
       <use xlink:href="#SimHei-31"/>
       <use xlink:href="#SimHei-30" x="50"/>
       <use xlink:href="#SimHei-30" x="100"/>
      </g>
     </g>
    </g>
    <g id="xtick_16">
     <g id="line2d_42">
      <path d="M 678.530809 157.6825 
L 678.530809 52.81125 
" clip-path="url(#p4e07860773)" style="fill: none; stroke: #ffffff; stroke-opacity: 0.3; stroke-linecap: round"/>
     </g>
     <g id="line2d_43"/>
     <g id="text_24">
      <!-- 120 -->
      <g style="fill: #262626" transform="translate(671.030809 171.5575) scale(0.1 -0.1)">
       <use xlink:href="#SimHei-31"/>
       <use xlink:href="#SimHei-32" x="50"/>
       <use xlink:href="#SimHei-30" x="100"/>
      </g>
     </g>
    </g>
    <g id="text_25">
     <!-- 频率 (Hz) -->
     <g style="fill: #262626" transform="translate(529.44625 185.40125) scale(0.11 -0.11)">
      <defs>
       <path id="SimHei-9891" d="M 4250 4450 
Q 3575 4450 3125 4425 
L 3125 4850 
Q 3550 4825 3925 4825 
L 5225 4825 
Q 5600 4825 6000 4850 
L 6000 4425 
Q 5600 4450 4700 4450 
Q 4625 4050 4550 3625 
L 5875 3625 
Q 5850 3275 5850 2900 
L 5850 1650 
Q 5850 1300 5875 750 
L 5400 750 
L 5400 3250 
L 3875 3250 
L 3875 800 
L 3400 800 
Q 3425 1275 3425 1650 
L 3425 2825 
Q 3425 3275 3400 3625 
L 4125 3625 
Q 4200 4100 4250 4450 
z
M 1675 2750 
Q 650 2750 350 2725 
L 350 3150 
Q 550 3125 725 3125 
Q 725 4275 700 4625 
L 1200 4625 
Q 1175 4275 1175 3125 
L 1675 3125 
L 1675 4275 
Q 1675 4750 1650 5125 
L 2150 5125 
Q 2125 4750 2125 4250 
Q 2625 4250 3025 4275 
L 3025 3850 
Q 2625 3875 2125 3875 
L 2125 3125 
Q 2850 3125 3150 3150 
L 3150 2725 
Q 2850 2750 2125 2750 
L 1675 2750 
z
M 2150 2600 
Q 2125 2250 2125 1925 
L 2125 1050 
Q 2600 1650 2650 2200 
Q 2875 2100 3175 2075 
Q 2850 1075 2187 450 
Q 1525 -175 700 -500 
Q 550 -250 200 -75 
Q 750 75 1087 237 
Q 1425 400 1675 625 
L 1675 1900 
Q 1675 2250 1650 2600 
L 2150 2600 
z
M 2775 -250 
Q 3400 -75 3737 225 
Q 4075 525 4212 887 
Q 4350 1250 4362 1725 
Q 4375 2200 4350 2750 
Q 4650 2700 4925 2650 
Q 4850 2325 4837 1975 
Q 4825 1625 4750 1112 
Q 4675 600 4300 162 
Q 3925 -275 3250 -650 
Q 3075 -450 2775 -250 
z
M 5850 -650 
Q 5550 -275 4800 250 
Q 4975 425 5075 600 
Q 5825 75 6200 -250 
Q 5975 -425 5850 -650 
z
M 400 1175 
Q 650 1550 900 2375 
Q 1125 2275 1375 2225 
Q 1000 1325 850 1025 
Q 650 1150 400 1175 
z
" transform="scale(0.015625)"/>
       <path id="SimHei-7387" d="M 3325 5150 
Q 3425 4900 3550 4525 
L 4800 4525 
Q 5250 4525 5800 4550 
L 5800 4125 
Q 5250 4175 4775 4175 
L 2800 4175 
Q 2975 4050 3300 3900 
Q 3075 3750 2875 3537 
Q 2675 3325 2475 3125 
L 3275 3125 
Q 3575 3425 3775 3775 
Q 4000 3600 4275 3425 
Q 3950 3250 3600 2875 
Q 3250 2500 2625 2000 
L 3850 2100 
Q 3725 2250 3600 2425 
Q 3750 2475 4000 2650 
Q 4250 2350 4700 1700 
Q 4475 1625 4225 1450 
Q 4175 1600 4025 1775 
Q 3700 1750 3425 1750 
L 3425 1050 
L 5150 1050 
Q 5675 1050 6100 1075 
L 6100 650 
Q 5700 675 5125 675 
L 3425 675 
L 3425 175 
Q 3425 -300 3450 -625 
L 2900 -625 
Q 2925 -300 2925 175 
L 2925 675 
L 1325 675 
Q 825 675 325 650 
L 325 1075 
Q 825 1050 1350 1050 
L 2925 1050 
L 2925 1700 
Q 2700 1675 2475 1637 
Q 2250 1600 2025 1525 
Q 1950 1775 1850 2000 
Q 2075 2025 2325 2200 
Q 2575 2375 2975 2800 
Q 2300 2725 2025 2625 
Q 1975 2875 1850 3175 
Q 2075 3175 2325 3487 
Q 2575 3800 2750 4175 
L 1700 4175 
Q 1150 4175 650 4125 
L 650 4550 
Q 1150 4525 1550 4525 
L 2975 4525 
Q 2900 4825 2800 5025 
Q 3025 5075 3325 5150 
z
M 1625 2575 
Q 1725 2400 1825 2200 
Q 1575 2050 1325 1862 
Q 1075 1675 800 1425 
Q 625 1675 475 1875 
Q 800 2025 1100 2212 
Q 1400 2400 1625 2575 
z
M 4850 2650 
Q 5125 2475 5337 2337 
Q 5550 2200 5875 1950 
Q 5675 1800 5500 1600 
Q 5300 1775 5062 1975 
Q 4825 2175 4575 2325 
Q 4725 2475 4850 2650 
z
M 5725 3525 
Q 5550 3450 5300 3262 
Q 5050 3075 4800 2825 
Q 4625 3050 4475 3175 
Q 4700 3325 4875 3487 
Q 5050 3650 5300 3925 
Q 5525 3700 5725 3525 
z
M 1050 3850 
Q 1425 3600 1775 3275 
Q 1575 3100 1425 2925 
Q 1075 3300 675 3525 
Q 875 3700 1050 3850 
z
" transform="scale(0.015625)"/>
       <path id="SimHei-48" d="M 2850 125 
L 2275 125 
L 2275 2125 
L 850 2125 
L 850 125 
L 275 125 
L 275 4400 
L 850 4400 
L 850 2600 
L 2275 2600 
L 2275 4400 
L 2850 4400 
L 2850 125 
z
" transform="scale(0.015625)"/>
       <path id="SimHei-7a" d="M 2775 125 
L 350 125 
L 350 525 
L 2050 2525 
L 450 2525 
L 450 2925 
L 2650 2925 
L 2650 2525 
L 950 525 
L 2775 525 
L 2775 125 
z
" transform="scale(0.015625)"/>
      </defs>
      <use xlink:href="#SimHei-9891"/>
      <use xlink:href="#SimHei-7387" x="100"/>
      <use xlink:href="#SimHei-20" x="200"/>
      <use xlink:href="#SimHei-28" x="250"/>
      <use xlink:href="#SimHei-48" x="300"/>
      <use xlink:href="#SimHei-7a" x="350"/>
      <use xlink:href="#SimHei-29" x="400"/>
     </g>
    </g>
   </g>
   <g id="matplotlib.axis_4">
    <g id="ytick_6">
     <g id="line2d_44">
      <path d="M 399.1925 152.972263 
L 709.2 152.972263 
" clip-path="url(#p4e07860773)" style="fill: none; stroke: #ffffff; stroke-opacity: 0.3; stroke-linecap: round"/>
     </g>
     <g id="line2d_45"/>
     <g id="text_26">
      <!-- 0 -->
      <g style="fill: #262626" transform="translate(387.1925 156.409763) scale(0.1 -0.1)">
       <use xlink:href="#SimHei-30"/>
      </g>
     </g>
    </g>
    <g id="ytick_7">
     <g id="line2d_46">
      <path d="M 399.1925 115.697302 
L 709.2 115.697302 
" clip-path="url(#p4e07860773)" style="fill: none; stroke: #ffffff; stroke-opacity: 0.3; stroke-linecap: round"/>
     </g>
     <g id="line2d_47"/>
     <g id="text_27">
      <!-- 100 -->
      <g style="fill: #262626" transform="translate(377.1925 119.134802) scale(0.1 -0.1)">
       <use xlink:href="#SimHei-31"/>
       <use xlink:href="#SimHei-30" x="50"/>
       <use xlink:href="#SimHei-30" x="100"/>
      </g>
     </g>
    </g>
    <g id="ytick_8">
     <g id="line2d_48">
      <path d="M 399.1925 78.42234 
L 709.2 78.42234 
" clip-path="url(#p4e07860773)" style="fill: none; stroke: #ffffff; stroke-opacity: 0.3; stroke-linecap: round"/>
     </g>
     <g id="line2d_49"/>
     <g id="text_28">
      <!-- 200 -->
      <g style="fill: #262626" transform="translate(377.1925 81.85984) scale(0.1 -0.1)">
       <use xlink:href="#SimHei-32"/>
       <use xlink:href="#SimHei-30" x="50"/>
       <use xlink:href="#SimHei-30" x="100"/>
      </g>
     </g>
    </g>
    <g id="text_29">
     <!-- 幅度 -->
     <g style="fill: #262626" transform="translate(371.8175 116.246875) rotate(-90) scale(0.11 -0.11)">
      <use xlink:href="#SimHei-5e45"/>
      <use xlink:href="#SimHei-5ea6" x="100"/>
     </g>
    </g>
   </g>
   <g id="line2d_50">
    <path d="M 413.28375 152.538929 
L 414.388946 151.931732 
L 415.494142 152.582593 
L 416.599338 152.478923 
L 417.704534 152.25167 
L 418.80973 151.339846 
L 419.914926 57.578125 
L 421.020123 152.772858 
L 422.125319 151.355212 
L 423.230515 152.127253 
L 424.335711 152.515696 
L 425.440907 151.850102 
L 426.546103 151.830578 
L 427.651299 150.858613 
L 428.756495 87.408213 
L 429.861691 150.986724 
L 430.966887 152.238401 
L 432.072083 152.166067 
L 433.177279 152.277592 
L 434.282475 152.065964 
L 435.387672 151.628022 
L 436.492868 152.001916 
L 437.598064 152.796619 
L 438.70326 151.834954 
L 439.808456 151.408964 
L 442.018848 152.079958 
L 443.124044 151.175419 
L 444.22924 152.030648 
L 445.334436 151.827768 
L 446.439632 125.507628 
L 447.544828 150.027191 
L 448.650025 152.278029 
L 449.755221 150.928342 
L 450.860417 151.670206 
L 451.965613 151.57157 
L 453.070809 152.44196 
L 454.176005 152.061632 
L 455.281201 152.680061 
L 458.596789 151.630343 
L 459.701985 151.916046 
L 460.807181 151.775018 
L 461.912377 152.872189 
L 463.017574 151.985525 
L 464.12277 152.890179 
L 465.227966 151.602966 
L 466.333162 152.287902 
L 467.438358 151.68497 
L 468.543554 151.462069 
L 469.64875 152.392235 
L 470.753946 152.821947 
L 471.859142 152.763743 
L 472.964338 152.451683 
L 476.279926 152.613424 
L 477.385123 152.407109 
L 478.490319 151.975724 
L 479.595515 152.51834 
L 480.700711 152.642602 
L 481.805907 151.652909 
L 482.911103 152.131708 
L 484.016299 151.980182 
L 485.121495 152.745295 
L 486.226691 151.710226 
L 487.331887 152.621466 
L 488.437083 152.158277 
L 489.542279 152.210099 
L 490.647475 152.638696 
L 491.752672 152.258491 
L 492.857868 152.071479 
L 493.963064 152.555113 
L 495.06826 152.636922 
L 497.278652 152.470141 
L 498.383848 152.060607 
L 499.489044 152.016405 
L 500.59424 152.272825 
L 501.699436 151.643596 
L 502.804632 152.130133 
L 503.909828 152.744181 
L 506.120221 152.421498 
L 507.225417 152.195261 
L 508.330613 152.281767 
L 510.541005 152.691264 
L 511.646201 152.447242 
L 512.751397 152.768371 
L 513.856593 152.112068 
L 514.961789 152.424822 
L 516.066985 152.486366 
L 517.172181 152.266916 
L 519.382574 152.597628 
L 520.48777 151.80836 
L 521.592966 152.386248 
L 522.698162 151.837542 
L 523.803358 152.27793 
L 524.908554 152.115556 
L 526.01375 152.76439 
L 528.224142 151.216207 
L 529.329338 152.301534 
L 530.434534 152.521238 
L 531.53973 152.039004 
L 532.644926 152.422509 
L 533.750123 151.968538 
L 534.855319 152.181383 
L 535.960515 152.054492 
L 537.065711 152.43325 
L 539.276103 152.518843 
L 541.486495 152.447045 
L 542.591691 152.562251 
L 543.696887 151.965686 
L 544.802083 152.278353 
L 545.907279 152.715624 
L 547.012475 151.997619 
L 548.117672 151.695552 
L 549.222868 151.59863 
L 550.328064 152.028449 
L 551.43326 151.818124 
L 552.538456 152.156267 
L 553.643652 152.280859 
L 554.748848 152.275871 
L 555.854044 151.67718 
L 559.169632 152.095603 
L 560.274828 151.737699 
L 561.380025 152.776214 
L 562.485221 152.476744 
L 563.590417 151.970033 
L 564.695613 152.414229 
L 565.800809 152.135709 
L 566.906005 152.54095 
L 569.116397 151.507742 
L 570.221593 152.402223 
L 571.326789 151.727607 
L 572.431985 152.453885 
L 573.537181 151.5873 
L 574.642377 152.249086 
L 576.85277 152.227994 
L 577.957966 151.498291 
L 579.063162 152.265069 
L 580.168358 152.705886 
L 581.273554 151.860456 
L 582.37875 152.484237 
L 583.483946 152.158173 
L 584.589142 152.685491 
L 585.694338 152.08798 
L 586.799534 152.061839 
L 587.90473 152.553907 
L 589.009926 152.39909 
L 590.115123 152.768302 
L 591.220319 152.537092 
L 592.325515 151.577024 
L 593.430711 152.741316 
L 594.535907 152.70072 
L 595.641103 152.115565 
L 598.956691 152.660008 
L 600.061887 152.448249 
L 601.167083 151.607465 
L 602.272279 152.233081 
L 603.377475 152.494326 
L 604.482672 152.309534 
L 605.587868 152.509681 
L 607.79826 152.046537 
L 608.903456 152.45134 
L 611.113848 152.325009 
L 612.219044 151.930815 
L 613.32424 152.146988 
L 614.429436 151.798496 
L 615.534632 152.184322 
L 616.639828 151.801603 
L 617.745025 151.740999 
L 618.850221 151.464234 
L 619.955417 151.962244 
L 621.060613 152.24041 
L 622.165809 151.937484 
L 623.271005 152.765424 
L 624.376201 152.357055 
L 625.481397 151.442209 
L 626.586593 152.658268 
L 627.691789 152.615418 
L 628.796985 151.881767 
L 629.902181 152.225025 
L 631.007377 152.208534 
L 632.112574 151.934041 
L 633.21777 152.403083 
L 634.322966 151.935628 
L 635.428162 152.915625 
L 636.533358 152.678123 
L 638.74375 151.833096 
L 640.954142 152.386233 
L 642.059338 152.516847 
L 643.164534 151.944843 
L 644.26973 151.595452 
L 645.374926 152.652102 
L 646.480123 152.264905 
L 647.585319 152.526499 
L 648.690515 151.303302 
L 649.795711 152.45433 
L 650.900907 152.206481 
L 652.006103 152.26731 
L 654.216495 152.643633 
L 655.321691 151.641475 
L 656.426887 152.089204 
L 657.532083 152.197492 
L 658.637279 151.789912 
L 659.742475 151.773359 
L 660.847672 152.607123 
L 661.952868 151.807163 
L 663.058064 151.942952 
L 665.268456 152.585459 
L 666.373652 152.137078 
L 667.478848 152.845097 
L 668.584044 151.861599 
L 669.68924 152.579253 
L 670.794436 152.447805 
L 671.899632 152.595498 
L 673.004828 152.48145 
L 674.110025 151.366367 
L 675.215221 152.432365 
L 677.425613 151.827657 
L 678.530809 152.053708 
L 679.636005 152.46284 
L 681.846397 152.731233 
L 682.951593 152.72406 
L 684.056789 152.160976 
L 685.161985 151.19703 
L 686.267181 152.372492 
L 687.372377 152.484399 
L 689.58277 152.239982 
L 690.687966 151.823609 
L 691.793162 152.142352 
L 692.898358 152.203049 
L 694.003554 152.553263 
L 695.10875 152.126864 
L 695.10875 152.126864 
" clip-path="url(#p4e07860773)" style="fill: none; stroke: #ff0000; stroke-width: 2; stroke-linecap: round"/>
   </g>
   <g id="patch_8">
    <path d="M 399.1925 157.6825 
L 399.1925 52.81125 
" style="fill: none"/>
   </g>
   <g id="patch_9">
    <path d="M 709.2 157.6825 
L 709.2 52.81125 
" style="fill: none"/>
   </g>
   <g id="patch_10">
    <path d="M 399.1925 157.6825 
L 709.2 157.6825 
" style="fill: none"/>
   </g>
   <g id="patch_11">
    <path d="M 399.1925 52.81125 
L 709.2 52.81125 
" style="fill: none"/>
   </g>
   <g id="text_30">
    <!-- 频域幅度谱 -->
    <g style="fill: #262626" transform="translate(524.19625 46.81125) scale(0.12 -0.12)">
     <defs>
      <path id="SimHei-8c31" d="M 5600 1850 
Q 5575 1375 5575 575 
Q 5575 -225 5600 -700 
L 5100 -700 
L 5100 -300 
L 3100 -300 
L 3100 -675 
L 2600 -675 
Q 2625 -125 2625 625 
Q 2625 1375 2600 1850 
L 5600 1850 
z
M 4350 4350 
Q 4625 4900 4725 5275 
Q 4975 5150 5275 5050 
Q 5075 4875 4825 4350 
Q 5650 4350 6050 4375 
L 6050 3975 
Q 5725 4000 4800 4000 
L 4800 2700 
Q 5575 2700 6175 2725 
L 6175 2325 
Q 5750 2350 5375 2350 
L 2750 2350 
Q 2275 2350 1875 2325 
L 1875 2725 
Q 2275 2700 3300 2700 
L 3300 4000 
Q 2475 4000 2100 3975 
L 2100 4375 
Q 2575 4350 3275 4350 
Q 3175 4550 2825 4950 
Q 3025 5100 3175 5250 
Q 3550 4825 3725 4600 
Q 3575 4475 3450 4350 
L 4350 4350 
z
M 2250 575 
Q 2025 400 1700 87 
Q 1375 -225 1175 -475 
Q 1050 -225 800 -100 
Q 1000 50 1000 275 
L 1000 2725 
Q 550 2725 225 2700 
L 225 3150 
Q 525 3125 725 3125 
L 1475 3125 
Q 1450 2725 1450 2350 
L 1450 450 
Q 1675 650 1950 1025 
Q 2025 850 2250 575 
z
M 5100 950 
L 5100 1475 
L 3100 1475 
L 3100 950 
L 5100 950 
z
M 5100 50 
L 5100 575 
L 3100 575 
L 3100 50 
L 5100 50 
z
M 4350 2700 
L 4350 4000 
L 3750 4000 
L 3750 2700 
L 4350 2700 
z
M 925 4975 
Q 1175 4700 1725 4150 
Q 1475 4000 1275 3800 
Q 900 4300 550 4650 
Q 700 4775 925 4975 
z
M 5850 3675 
Q 5525 3075 5375 2825 
Q 5175 2975 5000 3000 
Q 5250 3450 5375 3850 
Q 5625 3725 5850 3675 
z
M 2250 3600 
Q 2450 3675 2625 3800 
Q 2900 3425 3100 3100 
Q 2850 3000 2650 2875 
Q 2525 3225 2250 3600 
z
" transform="scale(0.015625)"/>
     </defs>
     <use xlink:href="#SimHei-9891"/>
     <use xlink:href="#SimHei-57df" x="100"/>
     <use xlink:href="#SimHei-5e45" x="200"/>
     <use xlink:href="#SimHei-5ea6" x="300"/>
     <use xlink:href="#SimHei-8c31" x="400"/>
    </g>
   </g>
  </g>
  <g id="axes_3">
   <g id="patch_12">
    <path d="M 42.1175 319.60375 
L 352.125 319.60375 
L 352.125 214.7325 
L 42.1175 214.7325 
z
" style="fill: #eaeaf2"/>
   </g>
   <g id="matplotlib.axis_5">
    <g id="xtick_17">
     <g id="line2d_51">
      <path d="M 56.20875 319.60375 
L 56.20875 214.7325 
" clip-path="url(#pd820f1c325)" style="fill: none; stroke: #ffffff; stroke-opacity: 0.3; stroke-linecap: round"/>
     </g>
     <g id="line2d_52"/>
     <g id="text_31">
      <!-- 0 -->
      <g style="fill: #262626" transform="translate(53.70875 333.47875) scale(0.1 -0.1)">
       <use xlink:href="#SimHei-30"/>
      </g>
     </g>
    </g>
    <g id="xtick_18">
     <g id="line2d_53">
      <path d="M 100.416593 319.60375 
L 100.416593 214.7325 
" clip-path="url(#pd820f1c325)" style="fill: none; stroke: #ffffff; stroke-opacity: 0.3; stroke-linecap: round"/>
     </g>
     <g id="line2d_54"/>
     <g id="text_32">
      <!-- 20 -->
      <g style="fill: #262626" transform="translate(95.416593 333.47875) scale(0.1 -0.1)">
       <use xlink:href="#SimHei-32"/>
       <use xlink:href="#SimHei-30" x="50"/>
      </g>
     </g>
    </g>
    <g id="xtick_19">
     <g id="line2d_55">
      <path d="M 144.624436 319.60375 
L 144.624436 214.7325 
" clip-path="url(#pd820f1c325)" style="fill: none; stroke: #ffffff; stroke-opacity: 0.3; stroke-linecap: round"/>
     </g>
     <g id="line2d_56"/>
     <g id="text_33">
      <!-- 40 -->
      <g style="fill: #262626" transform="translate(139.624436 333.47875) scale(0.1 -0.1)">
       <use xlink:href="#SimHei-34"/>
       <use xlink:href="#SimHei-30" x="50"/>
      </g>
     </g>
    </g>
    <g id="xtick_20">
     <g id="line2d_57">
      <path d="M 188.832279 319.60375 
L 188.832279 214.7325 
" clip-path="url(#pd820f1c325)" style="fill: none; stroke: #ffffff; stroke-opacity: 0.3; stroke-linecap: round"/>
     </g>
     <g id="line2d_58"/>
     <g id="text_34">
      <!-- 60 -->
      <g style="fill: #262626" transform="translate(183.832279 333.47875) scale(0.1 -0.1)">
       <use xlink:href="#SimHei-36"/>
       <use xlink:href="#SimHei-30" x="50"/>
      </g>
     </g>
    </g>
    <g id="xtick_21">
     <g id="line2d_59">
      <path d="M 233.040123 319.60375 
L 233.040123 214.7325 
" clip-path="url(#pd820f1c325)" style="fill: none; stroke: #ffffff; stroke-opacity: 0.3; stroke-linecap: round"/>
     </g>
     <g id="line2d_60"/>
     <g id="text_35">
      <!-- 80 -->
      <g style="fill: #262626" transform="translate(228.040123 333.47875) scale(0.1 -0.1)">
       <use xlink:href="#SimHei-38"/>
       <use xlink:href="#SimHei-30" x="50"/>
      </g>
     </g>
    </g>
    <g id="xtick_22">
     <g id="line2d_61">
      <path d="M 277.247966 319.60375 
L 277.247966 214.7325 
" clip-path="url(#pd820f1c325)" style="fill: none; stroke: #ffffff; stroke-opacity: 0.3; stroke-linecap: round"/>
     </g>
     <g id="line2d_62"/>
     <g id="text_36">
      <!-- 100 -->
      <g style="fill: #262626" transform="translate(269.747966 333.47875) scale(0.1 -0.1)">
       <use xlink:href="#SimHei-31"/>
       <use xlink:href="#SimHei-30" x="50"/>
       <use xlink:href="#SimHei-30" x="100"/>
      </g>
     </g>
    </g>
    <g id="xtick_23">
     <g id="line2d_63">
      <path d="M 321.455809 319.60375 
L 321.455809 214.7325 
" clip-path="url(#pd820f1c325)" style="fill: none; stroke: #ffffff; stroke-opacity: 0.3; stroke-linecap: round"/>
     </g>
     <g id="line2d_64"/>
     <g id="text_37">
      <!-- 120 -->
      <g style="fill: #262626" transform="translate(313.955809 333.47875) scale(0.1 -0.1)">
       <use xlink:href="#SimHei-31"/>
       <use xlink:href="#SimHei-32" x="50"/>
       <use xlink:href="#SimHei-30" x="100"/>
      </g>
     </g>
    </g>
    <g id="text_38">
     <!-- 频率 (Hz) -->
     <g style="fill: #262626" transform="translate(172.37125 347.3225) scale(0.11 -0.11)">
      <use xlink:href="#SimHei-9891"/>
      <use xlink:href="#SimHei-7387" x="100"/>
      <use xlink:href="#SimHei-20" x="200"/>
      <use xlink:href="#SimHei-28" x="250"/>
      <use xlink:href="#SimHei-48" x="300"/>
      <use xlink:href="#SimHei-7a" x="350"/>
      <use xlink:href="#SimHei-29" x="400"/>
     </g>
    </g>
   </g>
   <g id="matplotlib.axis_6">
    <g id="ytick_9">
     <g id="line2d_65">
      <path d="M 42.1175 297.911035 
L 352.125 297.911035 
" clip-path="url(#pd820f1c325)" style="fill: none; stroke: #ffffff; stroke-opacity: 0.3; stroke-linecap: round"/>
     </g>
     <g id="line2d_66"/>
     <g id="text_39">
      <!-- -2 -->
      <g style="fill: #262626" transform="translate(25.1175 301.348535) scale(0.1 -0.1)">
       <use xlink:href="#SimHei-2d"/>
       <use xlink:href="#SimHei-32" x="50"/>
      </g>
     </g>
    </g>
    <g id="ytick_10">
     <g id="line2d_67">
      <path d="M 42.1175 267.410113 
L 352.125 267.410113 
" clip-path="url(#pd820f1c325)" style="fill: none; stroke: #ffffff; stroke-opacity: 0.3; stroke-linecap: round"/>
     </g>
     <g id="line2d_68"/>
     <g id="text_40">
      <!-- 0 -->
      <g style="fill: #262626" transform="translate(30.1175 270.847613) scale(0.1 -0.1)">
       <use xlink:href="#SimHei-30"/>
      </g>
     </g>
    </g>
    <g id="ytick_11">
     <g id="line2d_69">
      <path d="M 42.1175 236.909191 
L 352.125 236.909191 
" clip-path="url(#pd820f1c325)" style="fill: none; stroke: #ffffff; stroke-opacity: 0.3; stroke-linecap: round"/>
     </g>
     <g id="line2d_70"/>
     <g id="text_41">
      <!-- 2 -->
      <g style="fill: #262626" transform="translate(30.1175 240.346691) scale(0.1 -0.1)">
       <use xlink:href="#SimHei-32"/>
      </g>
     </g>
    </g>
    <g id="text_42">
     <!-- 相位 (弧度) -->
     <g style="fill: #262626" transform="translate(19.7425 297.418125) rotate(-90) scale(0.11 -0.11)">
      <defs>
       <path id="SimHei-76f8" d="M 5900 4825 
Q 5875 4225 5875 3575 
L 5875 750 
Q 5875 75 5900 -575 
L 5400 -575 
L 5400 -100 
L 3525 -100 
L 3525 -625 
L 3025 -625 
Q 3050 125 3050 675 
L 3050 3600 
Q 3050 4250 3025 4825 
L 5900 4825 
z
M 1400 3825 
Q 1400 4850 1375 5200 
L 1925 5200 
Q 1900 4825 1900 3825 
Q 2500 3825 2825 3850 
L 2825 3375 
Q 2525 3400 1900 3400 
L 1900 2450 
Q 2025 2575 2175 2750 
Q 2625 2275 2950 1825 
Q 2800 1725 2575 1500 
Q 2300 1975 1900 2375 
L 1900 475 
Q 1900 50 1925 -625 
L 1375 -625 
Q 1400 50 1400 450 
L 1400 2150 
Q 1075 1225 650 675 
Q 475 950 300 1100 
Q 475 1250 800 1887 
Q 1125 2525 1300 3400 
Q 750 3400 400 3375 
L 400 3850 
Q 850 3825 1400 3825 
z
M 5400 325 
L 5400 1475 
L 3525 1475 
L 3525 325 
L 5400 325 
z
M 5400 3300 
L 5400 4400 
L 3525 4400 
L 3525 3300 
L 5400 3300 
z
M 5400 1900 
L 5400 2900 
L 3525 2900 
L 3525 1900 
L 5400 1900 
z
" transform="scale(0.015625)"/>
       <path id="SimHei-4f4d" d="M 2125 4925 
Q 1950 4750 1625 3750 
L 1625 575 
Q 1625 -225 1650 -650 
L 1100 -650 
Q 1150 -200 1150 550 
L 1150 2950 
Q 775 2275 550 1950 
Q 375 2275 200 2425 
Q 525 2775 912 3575 
Q 1300 4375 1500 5200 
Q 1825 5000 2125 4925 
z
M 5375 3025 
Q 5275 2875 5100 2250 
Q 4925 1625 4600 300 
L 5450 300 
Q 5925 300 6100 325 
L 6100 -175 
Q 5875 -150 5450 -150 
L 2900 -150 
Q 2275 -150 2050 -175 
L 2050 325 
Q 2275 300 2850 300 
L 4075 300 
Q 4400 1400 4700 3175 
Q 5100 3075 5375 3025 
z
M 5250 4025 
Q 5700 4025 5925 4050 
L 5925 3575 
Q 5700 3600 5225 3600 
L 3000 3600 
Q 2650 3600 2275 3575 
L 2275 4050 
Q 2675 4025 3000 4025 
L 5250 4025 
z
M 3050 3050 
Q 3500 1775 3750 725 
Q 3450 625 3250 550 
Q 3125 1125 2962 1675 
Q 2800 2225 2550 2875 
Q 2800 2925 3050 3050 
z
M 3875 5200 
Q 4175 4675 4400 4300 
Q 4200 4250 3875 4075 
Q 3700 4525 3400 4950 
Q 3650 5050 3875 5200 
z
" transform="scale(0.015625)"/>
       <path id="SimHei-5f27" d="M 4075 4450 
Q 4050 3225 4037 2037 
Q 4025 850 3925 275 
Q 4200 350 4500 425 
Q 4450 600 4350 825 
Q 4575 900 4775 975 
Q 4925 400 5100 -200 
Q 4875 -250 4700 -375 
Q 4650 -125 4600 50 
Q 3900 -125 3650 -375 
L 3350 50 
Q 3625 250 3637 1437 
Q 3650 2625 3675 4425 
L 3125 4400 
Q 3125 2625 3075 1850 
Q 3025 1075 2875 550 
Q 2725 25 2325 -575 
Q 2125 -400 1900 -225 
Q 2275 225 2450 775 
Q 2625 1325 2662 2237 
Q 2700 3150 2687 3787 
Q 2675 4425 2650 4775 
Q 3650 4800 4350 4900 
Q 5050 5000 5400 5150 
Q 5500 4850 5700 4625 
Q 5475 4625 5025 4575 
Q 5000 3750 5075 2962 
Q 5150 2175 5287 1662 
Q 5425 1150 5662 712 
Q 5900 275 6200 0 
Q 6000 -125 5875 -450 
Q 5500 -25 5262 437 
Q 5025 900 4887 1437 
Q 4750 1975 4675 2750 
Q 4600 3525 4600 4525 
L 4075 4450 
z
M 2100 2075 
Q 1925 800 1862 275 
Q 1800 -250 1475 -362 
Q 1150 -475 675 -550 
Q 650 -250 550 25 
Q 1275 -25 1375 150 
Q 1475 325 1575 1675 
L 400 1675 
Q 450 2150 475 2575 
Q 500 3000 525 3400 
L 1650 3400 
L 1700 4450 
L 1175 4450 
Q 750 4450 300 4425 
L 300 4850 
Q 750 4825 1150 4825 
L 2175 4825 
Q 2150 4425 2112 4000 
Q 2075 3575 2050 3000 
L 975 3000 
L 900 2075 
L 2100 2075 
z
" transform="scale(0.015625)"/>
      </defs>
      <use xlink:href="#SimHei-76f8"/>
      <use xlink:href="#SimHei-4f4d" x="100"/>
      <use xlink:href="#SimHei-20" x="200"/>
      <use xlink:href="#SimHei-28" x="250"/>
      <use xlink:href="#SimHei-5f27" x="300"/>
      <use xlink:href="#SimHei-5ea6" x="400"/>
      <use xlink:href="#SimHei-29" x="500"/>
     </g>
    </g>
   </g>
   <g id="line2d_71">
    <path d="M 56.20875 219.499375 
L 57.313946 250.917602 
L 58.419142 226.418474 
L 59.524338 306.517402 
L 60.629534 303.949791 
L 61.73473 286.5823 
L 62.839926 290.746861 
L 63.945123 223.900563 
L 65.050319 224.823498 
L 66.155515 307.962684 
L 67.260711 237.234169 
L 68.365907 281.527475 
L 69.471103 296.08536 
L 70.576299 290.566827 
L 71.681495 289.93638 
L 72.786691 245.872452 
L 73.891887 238.394996 
L 74.997083 237.42628 
L 76.102279 231.987558 
L 77.207475 239.552751 
L 78.312672 231.279441 
L 79.417868 261.614718 
L 80.523064 274.758256 
L 81.62826 252.792223 
L 82.733456 255.800864 
L 83.838652 310.736191 
L 84.943848 235.042774 
L 86.049044 294.257926 
L 87.15424 295.454415 
L 88.259436 291.296184 
L 89.364632 288.537052 
L 90.469828 238.223859 
L 91.575025 236.016031 
L 92.680221 234.3701 
L 93.785417 221.592547 
L 94.890613 235.900312 
L 95.995809 246.350305 
L 97.101005 243.150728 
L 98.206201 232.70799 
L 99.311397 259.434942 
L 100.416593 239.934128 
L 101.521789 226.110956 
L 102.626985 300.699784 
L 103.732181 307.152218 
L 104.837377 253.695807 
L 105.942574 272.240566 
L 107.04777 312.297799 
L 108.152966 247.134342 
L 109.258162 246.487424 
L 110.363358 250.464723 
L 111.468554 233.112963 
L 112.57375 297.617382 
L 113.678946 230.779491 
L 114.784142 225.86757 
L 115.889338 238.705708 
L 116.994534 242.093434 
L 118.09973 248.427979 
L 119.204926 240.846661 
L 120.310123 308.013479 
L 121.415319 225.331821 
L 122.520515 308.821211 
L 123.625711 314.836875 
L 124.730907 225.142891 
L 126.941299 301.220596 
L 128.046495 289.63225 
L 129.151691 313.57788 
L 130.256887 294.910396 
L 131.362083 295.863335 
L 132.467279 292.613568 
L 133.572475 238.492424 
L 134.677672 305.630751 
L 135.782868 296.307181 
L 136.888064 313.311172 
L 137.99326 258.75783 
L 139.098456 284.78663 
L 140.203652 277.534069 
L 141.308848 230.415416 
L 142.414044 222.865741 
L 143.51924 304.989969 
L 144.624436 239.60226 
L 145.729632 222.138441 
L 146.834828 289.478245 
L 147.940025 268.067999 
L 149.045221 242.45363 
L 150.150417 237.278328 
L 151.255613 237.761497 
L 152.360809 242.192318 
L 153.466005 294.189227 
L 154.571201 229.509061 
L 155.676397 300.092471 
L 156.781593 255.699542 
L 157.886789 238.571545 
L 158.991985 245.975875 
L 160.097181 300.546847 
L 161.202377 223.262646 
L 162.307574 229.479831 
L 163.41277 301.299308 
L 164.517966 267.939159 
L 165.623162 290.576981 
L 166.728358 243.690633 
L 167.833554 279.566826 
L 168.93875 285.095566 
L 170.043946 272.069139 
L 171.149142 224.894149 
L 172.254338 272.589271 
L 173.359534 309.627351 
L 174.46473 239.051562 
L 175.569926 259.343722 
L 176.675123 289.990382 
L 177.780319 221.716156 
L 178.885515 312.201642 
L 179.990711 284.348371 
L 181.095907 306.567146 
L 182.201103 277.975331 
L 183.306299 222.643815 
L 184.411495 221.641975 
L 185.516691 299.838137 
L 186.621887 248.456313 
L 187.727083 222.754407 
L 188.832279 277.302454 
L 189.937475 255.955346 
L 191.042672 238.203877 
L 192.147868 271.321356 
L 193.253064 235.557201 
L 194.35826 310.208434 
L 196.568652 233.88067 
L 197.673848 238.162292 
L 198.779044 268.896185 
L 199.88424 281.842454 
L 200.989436 260.80019 
L 202.094632 293.972362 
L 203.199828 252.964613 
L 204.305025 223.743961 
L 205.410221 274.688635 
L 206.515417 226.193795 
L 207.620613 236.655297 
L 208.725809 224.604771 
L 209.831005 253.904067 
L 210.936201 277.26173 
L 212.041397 284.586691 
L 213.146593 226.541061 
L 214.251789 305.273475 
L 215.356985 306.075495 
L 216.462181 294.011014 
L 217.567377 288.718226 
L 218.672574 302.21003 
L 219.77777 288.838978 
L 220.882966 220.932833 
L 221.988162 265.02376 
L 223.093358 258.200326 
L 224.198554 227.657668 
L 225.30375 219.84743 
L 226.408946 225.710121 
L 227.514142 287.808824 
L 228.619338 241.067956 
L 229.724534 306.33825 
L 230.82973 220.432571 
L 231.934926 271.775171 
L 233.040123 303.689247 
L 234.145319 286.357192 
L 235.250515 236.636411 
L 236.355711 236.110399 
L 237.460907 277.717133 
L 238.566103 273.328694 
L 239.671299 304.83224 
L 240.776495 243.083638 
L 241.881691 241.279767 
L 242.986887 223.619926 
L 244.092083 270.464532 
L 245.197279 253.427758 
L 246.302475 267.525393 
L 247.407672 249.156949 
L 248.512868 221.738289 
L 249.618064 228.984616 
L 250.72326 232.498364 
L 251.828456 257.987646 
L 252.933652 258.667197 
L 254.038848 297.58963 
L 255.144044 284.395847 
L 256.24924 225.991768 
L 257.354436 245.139885 
L 258.459632 306.296774 
L 259.564828 251.59938 
L 260.670025 279.110816 
L 261.775221 300.167449 
L 262.880417 292.941267 
L 263.985613 306.674583 
L 265.090809 241.039955 
L 266.196005 253.580668 
L 267.301201 275.927404 
L 268.406397 254.774969 
L 269.511593 244.615037 
L 270.616789 271.606439 
L 271.721985 283.376209 
L 272.827181 259.416388 
L 273.932377 230.118635 
L 275.037574 272.416286 
L 276.14277 293.26873 
L 277.247966 292.02532 
L 278.353162 259.654161 
L 279.458358 234.940937 
L 280.563554 223.596481 
L 281.66875 245.171773 
L 282.773946 259.078993 
L 283.879142 264.018678 
L 284.984338 248.135695 
L 286.089534 260.307225 
L 287.19473 260.548772 
L 288.299926 223.336501 
L 289.405123 246.006195 
L 290.510319 309.771584 
L 291.615515 221.733704 
L 292.720711 309.732857 
L 293.825907 295.838988 
L 294.931103 223.214113 
L 296.036299 266.223426 
L 297.141495 266.313756 
L 298.246691 303.969091 
L 299.351887 222.257043 
L 300.457083 300.454598 
L 301.562279 286.175585 
L 302.667475 261.6389 
L 303.772672 225.959986 
L 304.877868 227.306776 
L 305.983064 305.892419 
L 307.08826 300.87842 
L 308.193456 221.451649 
L 309.298652 306.077025 
L 310.403848 314.304093 
L 311.509044 237.684652 
L 312.61424 254.87791 
L 313.719436 274.85877 
L 314.824632 292.28146 
L 315.929828 279.848178 
L 317.035025 235.991244 
L 318.140221 309.935891 
L 319.245417 263.212335 
L 320.350613 247.460352 
L 321.455809 279.927712 
L 323.666201 231.320429 
L 324.771397 247.512214 
L 325.876593 226.945929 
L 326.981789 226.674415 
L 328.086985 293.417026 
L 329.192181 220.575647 
L 330.297377 288.350402 
L 331.402574 297.57481 
L 332.50777 249.419007 
L 333.612966 231.522154 
L 334.718162 263.065137 
L 335.823358 290.060264 
L 336.928554 295.897913 
L 338.03375 300.370669 
L 338.03375 300.370669 
" clip-path="url(#pd820f1c325)" style="fill: none; stroke: #008000; stroke-width: 2; stroke-linecap: round"/>
   </g>
   <g id="patch_13">
    <path d="M 42.1175 319.60375 
L 42.1175 214.7325 
" style="fill: none"/>
   </g>
   <g id="patch_14">
    <path d="M 352.125 319.60375 
L 352.125 214.7325 
" style="fill: none"/>
   </g>
   <g id="patch_15">
    <path d="M 42.1175 319.60375 
L 352.125 319.60375 
" style="fill: none"/>
   </g>
   <g id="patch_16">
    <path d="M 42.1175 214.7325 
L 352.125 214.7325 
" style="fill: none"/>
   </g>
   <g id="text_43">
    <!-- 相位谱 -->
    <g style="fill: #262626" transform="translate(179.12125 208.7325) scale(0.12 -0.12)">
     <use xlink:href="#SimHei-76f8"/>
     <use xlink:href="#SimHei-4f4d" x="100"/>
     <use xlink:href="#SimHei-8c31" x="200"/>
    </g>
   </g>
  </g>
  <g id="axes_4">
   <g id="patch_17">
    <path d="M 399.1925 319.60375 
L 709.2 319.60375 
L 709.2 214.7325 
L 399.1925 214.7325 
z
" style="fill: #eaeaf2"/>
   </g>
   <g id="matplotlib.axis_7">
    <g id="xtick_24">
     <g id="line2d_72">
      <path d="M 413.28375 319.60375 
L 413.28375 214.7325 
" clip-path="url(#pab323c5fab)" style="fill: none; stroke: #ffffff; stroke-opacity: 0.3; stroke-linecap: round"/>
     </g>
     <g id="line2d_73"/>
     <g id="text_44">
      <!-- 0 -->
      <g style="fill: #262626" transform="translate(410.78375 333.47875) scale(0.1 -0.1)">
       <use xlink:href="#SimHei-30"/>
      </g>
     </g>
    </g>
    <g id="xtick_25">
     <g id="line2d_74">
      <path d="M 457.491593 319.60375 
L 457.491593 214.7325 
" clip-path="url(#pab323c5fab)" style="fill: none; stroke: #ffffff; stroke-opacity: 0.3; stroke-linecap: round"/>
     </g>
     <g id="line2d_75"/>
     <g id="text_45">
      <!-- 20 -->
      <g style="fill: #262626" transform="translate(452.491593 333.47875) scale(0.1 -0.1)">
       <use xlink:href="#SimHei-32"/>
       <use xlink:href="#SimHei-30" x="50"/>
      </g>
     </g>
    </g>
    <g id="xtick_26">
     <g id="line2d_76">
      <path d="M 501.699436 319.60375 
L 501.699436 214.7325 
" clip-path="url(#pab323c5fab)" style="fill: none; stroke: #ffffff; stroke-opacity: 0.3; stroke-linecap: round"/>
     </g>
     <g id="line2d_77"/>
     <g id="text_46">
      <!-- 40 -->
      <g style="fill: #262626" transform="translate(496.699436 333.47875) scale(0.1 -0.1)">
       <use xlink:href="#SimHei-34"/>
       <use xlink:href="#SimHei-30" x="50"/>
      </g>
     </g>
    </g>
    <g id="xtick_27">
     <g id="line2d_78">
      <path d="M 545.907279 319.60375 
L 545.907279 214.7325 
" clip-path="url(#pab323c5fab)" style="fill: none; stroke: #ffffff; stroke-opacity: 0.3; stroke-linecap: round"/>
     </g>
     <g id="line2d_79"/>
     <g id="text_47">
      <!-- 60 -->
      <g style="fill: #262626" transform="translate(540.907279 333.47875) scale(0.1 -0.1)">
       <use xlink:href="#SimHei-36"/>
       <use xlink:href="#SimHei-30" x="50"/>
      </g>
     </g>
    </g>
    <g id="xtick_28">
     <g id="line2d_80">
      <path d="M 590.115123 319.60375 
L 590.115123 214.7325 
" clip-path="url(#pab323c5fab)" style="fill: none; stroke: #ffffff; stroke-opacity: 0.3; stroke-linecap: round"/>
     </g>
     <g id="line2d_81"/>
     <g id="text_48">
      <!-- 80 -->
      <g style="fill: #262626" transform="translate(585.115123 333.47875) scale(0.1 -0.1)">
       <use xlink:href="#SimHei-38"/>
       <use xlink:href="#SimHei-30" x="50"/>
      </g>
     </g>
    </g>
    <g id="xtick_29">
     <g id="line2d_82">
      <path d="M 634.322966 319.60375 
L 634.322966 214.7325 
" clip-path="url(#pab323c5fab)" style="fill: none; stroke: #ffffff; stroke-opacity: 0.3; stroke-linecap: round"/>
     </g>
     <g id="line2d_83"/>
     <g id="text_49">
      <!-- 100 -->
      <g style="fill: #262626" transform="translate(626.822966 333.47875) scale(0.1 -0.1)">
       <use xlink:href="#SimHei-31"/>
       <use xlink:href="#SimHei-30" x="50"/>
       <use xlink:href="#SimHei-30" x="100"/>
      </g>
     </g>
    </g>
    <g id="xtick_30">
     <g id="line2d_84">
      <path d="M 678.530809 319.60375 
L 678.530809 214.7325 
" clip-path="url(#pab323c5fab)" style="fill: none; stroke: #ffffff; stroke-opacity: 0.3; stroke-linecap: round"/>
     </g>
     <g id="line2d_85"/>
     <g id="text_50">
      <!-- 120 -->
      <g style="fill: #262626" transform="translate(671.030809 333.47875) scale(0.1 -0.1)">
       <use xlink:href="#SimHei-31"/>
       <use xlink:href="#SimHei-32" x="50"/>
       <use xlink:href="#SimHei-30" x="100"/>
      </g>
     </g>
    </g>
    <g id="text_51">
     <!-- 频率 (Hz) -->
     <g style="fill: #262626" transform="translate(529.44625 347.3225) scale(0.11 -0.11)">
      <use xlink:href="#SimHei-9891"/>
      <use xlink:href="#SimHei-7387" x="100"/>
      <use xlink:href="#SimHei-20" x="200"/>
      <use xlink:href="#SimHei-28" x="250"/>
      <use xlink:href="#SimHei-48" x="300"/>
      <use xlink:href="#SimHei-7a" x="350"/>
      <use xlink:href="#SimHei-29" x="400"/>
     </g>
    </g>
   </g>
   <g id="matplotlib.axis_8">
    <g id="ytick_12">
     <g id="line2d_86">
      <path d="M 399.1925 290.656643 
L 709.2 290.656643 
" clip-path="url(#pab323c5fab)" style="fill: none; stroke: #ffffff; stroke-opacity: 0.3; stroke-linecap: round"/>
     </g>
     <g id="line2d_87"/>
     <g id="text_52">
      <!-- $\mathdefault{10^{0}}$ -->
      <g style="fill: #262626" transform="translate(378.2925 294.131643) scale(0.1 -0.1)">
       <use xlink:href="#SimHei-31" transform="translate(0 0.0625)"/>
       <use xlink:href="#SimHei-30" transform="translate(50 0.0625)"/>
       <use xlink:href="#SimHei-30" transform="translate(100.799805 32.054688) scale(0.7)"/>
      </g>
     </g>
    </g>
    <g id="ytick_13">
     <g id="line2d_88">
      <path d="M 399.1925 261.107565 
L 709.2 261.107565 
" clip-path="url(#pab323c5fab)" style="fill: none; stroke: #ffffff; stroke-opacity: 0.3; stroke-linecap: round"/>
     </g>
     <g id="line2d_89"/>
     <g id="text_53">
      <!-- $\mathdefault{10^{2}}$ -->
      <g style="fill: #262626" transform="translate(378.2925 264.632565) scale(0.1 -0.1)">
       <use xlink:href="#SimHei-31" transform="translate(0 0.789062)"/>
       <use xlink:href="#SimHei-30" transform="translate(50 0.789062)"/>
       <use xlink:href="#SimHei-32" transform="translate(100.799805 32.78125) scale(0.7)"/>
      </g>
     </g>
    </g>
    <g id="ytick_14">
     <g id="line2d_90">
      <path d="M 399.1925 231.558486 
L 709.2 231.558486 
" clip-path="url(#pab323c5fab)" style="fill: none; stroke: #ffffff; stroke-opacity: 0.3; stroke-linecap: round"/>
     </g>
     <g id="line2d_91"/>
     <g id="text_54">
      <!-- $\mathdefault{10^{4}}$ -->
      <g style="fill: #262626" transform="translate(378.2925 235.033486) scale(0.1 -0.1)">
       <use xlink:href="#SimHei-31" transform="translate(0 0.335938)"/>
       <use xlink:href="#SimHei-30" transform="translate(50 0.335938)"/>
       <use xlink:href="#SimHei-34" transform="translate(100.799805 32.328125) scale(0.7)"/>
      </g>
     </g>
    </g>
    <g id="text_55">
     <!-- 功率 -->
     <g style="fill: #262626" transform="translate(372.9175 278.168125) rotate(-90) scale(0.11 -0.11)">
      <defs>
       <path id="SimHei-529f" d="M 5675 275 
Q 5575 -200 5225 -312 
Q 4875 -425 4450 -475 
Q 4400 -175 4200 100 
Q 4725 75 4937 137 
Q 5150 200 5175 425 
Q 5300 1775 5375 3275 
L 4250 3275 
Q 4225 2550 4125 1925 
Q 4025 1300 3787 850 
Q 3550 400 3250 50 
Q 2950 -300 2550 -650 
Q 2375 -400 2100 -250 
Q 2650 100 2925 425 
Q 3200 750 3400 1162 
Q 3600 1575 3675 2075 
Q 3750 2575 3775 3275 
L 3400 3275 
Q 3100 3275 2800 3250 
L 2800 3725 
Q 3125 3700 3450 3700 
L 3775 3700 
L 3775 4575 
Q 3775 4875 3750 5175 
Q 4075 5100 4325 5075 
Q 4275 4900 4262 4525 
Q 4250 4150 4250 3700 
L 5900 3700 
Q 5875 3350 5850 3037 
Q 5825 2725 5675 275 
z
M 2900 1000 
Q 2475 900 2200 837 
Q 1925 775 1337 600 
Q 750 425 500 350 
Q 400 700 300 900 
Q 450 900 1375 1100 
L 1375 3900 
L 1175 3900 
Q 875 3900 450 3875 
L 450 4350 
Q 850 4325 1175 4325 
L 2100 4325 
Q 2450 4325 2725 4350 
L 2725 3875 
Q 2425 3900 2125 3900 
L 1875 3900 
L 1875 1200 
L 2375 1325 
Q 2575 1375 2850 1450 
L 2900 1000 
z
" transform="scale(0.015625)"/>
      </defs>
      <use xlink:href="#SimHei-529f"/>
      <use xlink:href="#SimHei-7387" x="100"/>
     </g>
    </g>
   </g>
   <g id="line2d_92">
    <path d="M 413.28375 288.723954 
L 414.388946 277.482541 
L 415.494142 290.086947 
L 416.599338 287.059665 
L 417.704534 282.197539 
L 418.80973 271.703455 
L 419.914926 219.499375 
L 421.020123 298.684575 
L 422.125319 271.824822 
L 424.335711 288.05375 
L 425.440907 276.513331 
L 426.546103 276.291978 
L 427.651299 268.38799 
L 428.756495 224.311617 
L 429.861691 269.19038 
L 430.966887 281.963391 
L 432.072083 280.757007 
L 433.177279 282.66769 
L 434.282475 279.254998 
L 435.387672 274.19603 
L 436.492868 278.378708 
L 437.598064 300.312782 
L 438.70326 276.34126 
L 439.808456 272.258652 
L 440.913652 275.549586 
L 442.018848 279.4547 
L 443.124044 270.471866 
L 444.22924 278.764425 
L 445.334436 276.260424 
L 446.439632 235.477975 
L 447.544828 264.131063 
L 448.650025 282.675765 
L 449.755221 268.818489 
L 450.860417 274.605201 
L 451.965613 273.668116 
L 453.070809 286.132479 
L 454.176005 279.193805 
L 455.281201 293.780958 
L 456.386397 283.943699 
L 457.491593 278.048488 
L 458.596789 274.218212 
L 459.701985 277.290534 
L 460.807181 275.682173 
L 461.912377 307.531933 
L 463.017574 278.163743 
L 464.12277 310.074995 
L 465.227966 273.95903 
L 466.333162 282.859573 
L 467.438358 274.751546 
L 468.543554 272.702166 
L 469.64875 284.982281 
L 470.753946 302.311144 
L 471.859142 298.110982 
L 472.964338 286.369937 
L 474.069534 287.304723 
L 475.17473 290.738772 
L 476.279926 291.144701 
L 477.385123 285.315644 
L 478.490319 278.036901 
L 479.595515 288.128269 
L 480.700711 292.23305 
L 481.805907 274.435849 
L 482.911103 280.221416 
L 484.016299 278.094439 
L 485.121495 297.023047 
L 486.226691 275.005822 
L 487.331887 291.435577 
L 488.437083 280.633605 
L 489.542279 281.477767 
L 490.647475 292.081902 
L 491.752672 282.319586 
L 492.857868 279.33333 
L 493.963064 289.212425 
L 495.06826 292.013853 
L 496.173456 289.942438 
L 497.278652 286.833211 
L 498.383848 279.179363 
L 499.489044 278.571773 
L 500.59424 282.579924 
L 501.699436 274.345585 
L 502.804632 280.197396 
L 503.909828 296.960218 
L 505.015025 291.968525 
L 506.120221 285.646625 
L 507.225417 281.230337 
L 508.330613 282.745044 
L 509.435809 287.479207 
L 510.541005 294.282676 
L 511.646201 286.260936 
L 512.751397 298.398982 
L 513.856593 279.925008 
L 514.961789 285.724307 
L 516.066985 287.254734 
L 517.172181 282.47196 
L 518.277377 286.322259 
L 519.382574 290.591905 
L 520.48777 276.044633 
L 521.592966 284.850484 
L 522.698162 276.370494 
L 523.803358 282.673934 
L 524.908554 279.977156 
L 526.01375 298.150852 
L 527.118946 278.380059 
L 528.224142 270.766532 
L 529.329338 283.117783 
L 530.434534 288.21046 
L 531.53973 278.878821 
L 532.644926 285.670201 
L 533.750123 277.944705 
L 534.855319 281.003149 
L 535.960515 279.093586 
L 537.065711 285.9234 
L 538.170907 286.877724 
L 539.276103 288.142503 
L 540.381299 285.903155 
L 541.486495 286.256123 
L 542.591691 289.433924 
L 543.696887 277.908281 
L 544.802083 282.681765 
L 545.907279 295.446381 
L 547.012475 278.322003 
L 548.117672 274.857476 
L 549.222868 273.918457 
L 550.328064 278.734491 
L 551.43326 276.152741 
L 552.538456 280.601943 
L 553.643652 282.728183 
L 554.748848 282.635943 
L 555.854044 274.674122 
L 556.95924 276.276525 
L 558.064436 276.870541 
L 559.169632 279.681695 
L 560.274828 275.288275 
L 561.380025 298.902348 
L 562.485221 287.003104 
L 563.590417 277.963821 
L 564.695613 285.47836 
L 565.800809 280.282643 
L 566.906005 288.783958 
L 568.011201 278.02785 
L 569.116397 273.096265 
L 570.221593 285.205184 
L 571.326789 275.183795 
L 572.431985 286.424336 
L 573.537181 273.813051 
L 574.642377 282.151605 
L 575.747574 282.938375 
L 576.85277 281.782667 
L 577.957966 273.01371 
L 579.063162 282.438409 
L 580.168358 294.968469 
L 581.273554 276.632288 
L 582.37875 287.198626 
L 583.483946 280.631953 
L 584.589142 294.02169 
L 585.694338 279.570589 
L 586.799534 279.196719 
L 587.90473 289.175377 
L 589.009926 285.134854 
L 590.115123 298.394641 
L 591.220319 288.669663 
L 592.325515 273.718182 
L 593.430711 296.800011 
L 594.535907 294.721948 
L 595.641103 279.97729 
L 596.746299 282.660927 
L 597.851495 284.777391 
L 598.956691 292.929175 
L 600.061887 286.285575 
L 601.167083 274.001269 
L 602.272279 281.870689 
L 603.377475 287.466719 
L 604.482672 283.271761 
L 605.587868 287.88578 
L 606.693064 281.698826 
L 607.79826 278.98283 
L 608.903456 286.361486 
L 610.008652 285.191186 
L 611.113848 283.57497 
L 612.219044 277.471236 
L 613.32424 280.456841 
L 614.429436 275.936335 
L 615.534632 281.050931 
L 616.639828 275.970348 
L 617.745025 275.322623 
L 618.850221 272.720571 
L 619.955417 277.86448 
L 621.060613 281.998562 
L 622.165809 277.553677 
L 623.271005 298.214841 
L 624.376201 284.226617 
L 625.481397 272.534497 
L 626.586593 292.857893 
L 627.691789 291.21623 
L 628.796985 276.880659 
L 629.902181 281.731582 
L 631.007377 281.451453 
L 632.112574 277.511058 
L 633.21777 285.224564 
L 634.322966 277.530686 
L 635.428162 314.836875 
L 636.533358 293.696148 
L 637.638554 281.638045 
L 638.74375 276.320305 
L 639.848946 279.921261 
L 640.954142 284.850156 
L 642.059338 288.086131 
L 643.164534 277.645271 
L 644.26973 273.88881 
L 645.374926 292.608302 
L 646.480123 282.435436 
L 647.585319 288.361046 
L 648.690515 271.419335 
L 649.795711 286.435374 
L 650.900907 281.417 
L 652.006103 282.479134 
L 653.111299 286.988349 
L 654.216495 292.273253 
L 655.321691 274.325108 
L 656.426887 279.58837 
L 657.532083 281.267238 
L 658.637279 275.842823 
L 659.742475 275.664407 
L 660.847672 290.921337 
L 661.952868 276.031443 
L 663.058064 277.62167 
L 664.16326 281.461175 
L 665.268456 290.181667 
L 666.373652 280.303668 
L 667.478848 304.457379 
L 668.584044 276.645491 
L 669.68924 289.977424 
L 670.794436 286.274689 
L 671.899632 290.519133 
L 673.004828 287.125563 
L 674.110025 271.913653 
L 675.215221 285.902341 
L 677.425613 276.259182 
L 678.530809 279.082625 
L 679.636005 286.647967 
L 680.741201 291.781409 
L 681.846397 296.251626 
L 682.951593 295.875293 
L 684.056789 280.67622 
L 685.161985 270.62715 
L 686.267181 284.552746 
L 687.372377 287.202904 
L 688.477574 285.119026 
L 689.58277 281.991052 
L 690.687966 276.213878 
L 691.793162 280.384961 
L 692.898358 281.359606 
L 694.003554 289.15563 
L 695.10875 280.147667 
L 695.10875 280.147667 
" clip-path="url(#pab323c5fab)" style="fill: none; stroke: #bf00bf; stroke-width: 2; stroke-linecap: round"/>
   </g>
   <g id="patch_18">
    <path d="M 399.1925 319.60375 
L 399.1925 214.7325 
" style="fill: none"/>
   </g>
   <g id="patch_19">
    <path d="M 709.2 319.60375 
L 709.2 214.7325 
" style="fill: none"/>
   </g>
   <g id="patch_20">
    <path d="M 399.1925 319.60375 
L 709.2 319.60375 
" style="fill: none"/>
   </g>
   <g id="patch_21">
    <path d="M 399.1925 214.7325 
L 709.2 214.7325 
" style="fill: none"/>
   </g>
   <g id="text_56">
    <!-- 功率谱密度 (对数尺度) -->
    <g style="fill: #262626" transform="translate(491.19625 208.7325) scale(0.12 -0.12)">
     <defs>
      <path id="SimHei-5bc6" d="M 4825 3350 
Q 4475 3125 3962 2750 
Q 3450 2375 2775 2025 
L 4025 2025 
Q 4550 2025 4550 2600 
Q 4800 2450 5150 2325 
Q 4900 1775 4712 1687 
Q 4525 1600 4200 1600 
L 2875 1600 
Q 2225 1575 2175 1675 
Q 1125 1325 575 1175 
Q 475 1425 250 1675 
Q 850 1725 1262 1850 
Q 1675 1975 2000 2100 
L 2000 2750 
Q 2000 3000 1975 3400 
L 2550 3400 
Q 2525 3025 2525 2775 
L 2525 2350 
Q 2900 2525 3425 2887 
Q 3950 3250 4325 3775 
Q 4475 3625 4825 3350 
z
M 1225 550 
Q 1225 825 1200 1125 
L 1750 1125 
Q 1725 775 1725 525 
L 1725 0 
L 3075 0 
L 3075 700 
Q 3075 950 3025 1375 
L 3600 1375 
Q 3575 1100 3575 675 
L 3575 0 
L 4975 0 
L 4975 625 
Q 4975 875 4950 1200 
L 5500 1200 
Q 5475 900 5475 600 
L 5475 -225 
Q 5475 -425 5500 -700 
L 4975 -700 
L 4975 -400 
L 1200 -400 
Q 1225 -150 1225 75 
L 1225 550 
z
M 5375 3575 
L 5375 4150 
L 1150 4150 
L 1150 3550 
L 600 3550 
Q 625 3700 625 4000 
Q 625 4300 600 4575 
L 2975 4575 
Q 2900 4800 2775 5050 
Q 3000 5125 3325 5225 
Q 3425 5075 3575 4575 
L 5925 4575 
Q 5900 4250 5900 4025 
Q 5900 3825 5925 3575 
L 5375 3575 
z
M 1650 3275 
Q 1500 2850 1225 2250 
Q 900 2350 675 2400 
Q 950 2800 1100 3400 
Q 1350 3325 1650 3275 
z
M 5450 3325 
Q 5775 2925 6100 2450 
Q 5825 2350 5625 2200 
Q 5350 2675 5000 3050 
Q 5200 3175 5450 3325 
z
M 3225 3150 
Q 2875 3600 2575 3825 
Q 2775 3950 2975 4125 
Q 3175 3975 3650 3475 
Q 3450 3300 3225 3150 
z
" transform="scale(0.015625)"/>
      <path id="SimHei-5bf9" d="M 525 4250 
Q 900 4225 1400 4225 
L 2825 4225 
Q 2575 2625 2200 1750 
Q 2825 875 3125 400 
Q 2950 275 2725 75 
Q 2200 975 1950 1300 
Q 1650 775 1350 425 
Q 1050 75 600 -350 
Q 425 -125 200 -25 
Q 625 275 975 675 
Q 1325 1075 1650 1700 
Q 1050 2425 550 2900 
Q 700 3025 900 3225 
Q 1625 2425 1875 2150 
Q 2200 3050 2300 3825 
L 1400 3825 
Q 900 3825 525 3800 
L 525 4250 
z
M 2925 3700 
Q 3525 3675 3750 3675 
L 4825 3675 
L 4825 4425 
Q 4825 4750 4775 5125 
L 5350 5125 
Q 5325 4825 5325 4375 
L 5325 3675 
Q 5575 3675 6150 3700 
L 6150 3250 
Q 5575 3275 5325 3275 
L 5325 125 
Q 5350 -350 5012 -475 
Q 4675 -600 4250 -650 
Q 4175 -350 4025 -100 
Q 4575 -100 4712 -37 
Q 4850 25 4825 325 
L 4825 3275 
L 3775 3275 
Q 3550 3275 2925 3225 
L 2925 3700 
z
M 3450 2725 
Q 3875 1975 4175 1325 
Q 3850 1200 3700 1075 
Q 3475 1750 3050 2475 
Q 3225 2550 3450 2725 
z
" transform="scale(0.015625)"/>
      <path id="SimHei-6570" d="M 4525 4925 
Q 4475 4800 4400 4587 
Q 4325 4375 4175 3825 
L 5325 3825 
Q 5575 3825 5925 3850 
L 5925 3400 
Q 5650 3425 5500 3425 
Q 5500 3025 5362 2162 
Q 5225 1300 4875 675 
Q 5125 375 5437 137 
Q 5750 -100 6025 -200 
Q 5725 -425 5625 -625 
Q 5325 -450 5075 -225 
Q 4825 0 4575 325 
Q 4300 25 3987 -187 
Q 3675 -400 3200 -650 
Q 3075 -425 2850 -300 
Q 3225 -150 3650 125 
Q 4075 400 4300 675 
Q 4125 1025 3962 1425 
Q 3800 1825 3675 2475 
Q 3600 2275 3425 1950 
Q 3250 2050 3000 2150 
Q 3400 2850 3650 3675 
Q 3900 4500 3975 5100 
Q 4275 4975 4525 4925 
z
M 2100 2250 
Q 2000 2150 1875 1925 
L 3250 1925 
Q 3100 1300 2725 675 
Q 3125 525 3350 400 
Q 3225 225 3125 25 
Q 2900 175 2450 325 
Q 1950 -225 725 -650 
Q 600 -375 400 -275 
Q 1575 0 2000 475 
Q 1300 650 850 775 
Q 1000 1000 1250 1525 
Q 1000 1525 425 1500 
L 425 1950 
Q 900 1925 1400 1925 
Q 1500 2150 1550 2425 
Q 1825 2325 2100 2250 
z
M 1775 3950 
Q 1775 4550 1750 5100 
L 2250 5100 
Q 2225 4575 2225 3950 
Q 3075 3950 3425 3975 
L 3425 3525 
Q 3075 3550 2225 3550 
Q 2225 2825 2250 2425 
L 1750 2425 
Q 1775 2775 1775 3300 
Q 1650 3100 1300 2787 
Q 950 2475 650 2300 
Q 525 2525 275 2625 
Q 500 2700 875 2975 
Q 1250 3250 1450 3550 
Q 950 3550 500 3525 
L 500 3975 
Q 925 3950 1775 3950 
z
M 3975 3175 
Q 4200 1700 4600 1125 
Q 4850 1700 4937 2287 
Q 5025 2875 5050 3425 
L 4075 3425 
L 3975 3175 
z
M 1450 1000 
Q 1750 925 2275 800 
Q 2475 1050 2650 1525 
L 1725 1525 
Q 1600 1275 1450 1000 
z
M 3325 4825 
Q 3200 4625 3125 4450 
Q 3050 4275 2925 4025 
Q 2725 4125 2525 4175 
Q 2725 4500 2900 5000 
Q 3150 4875 3325 4825 
z
M 2575 3375 
Q 2900 3050 3200 2725 
Q 3050 2600 2875 2425 
Q 2525 2850 2300 3100 
Q 2450 3225 2575 3375 
z
M 925 5000 
Q 1275 4650 1500 4300 
L 1125 4075 
Q 950 4425 600 4725 
Q 825 4875 925 5000 
z
" transform="scale(0.015625)"/>
      <path id="SimHei-5c3a" d="M 5450 4975 
Q 5425 4600 5425 4125 
L 5425 3200 
Q 5425 2750 5450 2375 
L 4925 2375 
L 4925 2750 
L 3525 2750 
Q 3725 1550 4487 887 
Q 5250 225 6100 100 
Q 5825 -225 5700 -600 
Q 4775 -275 4000 612 
Q 3225 1500 3025 2750 
L 1800 2750 
Q 1775 1600 1462 750 
Q 1150 -100 700 -700 
Q 500 -525 225 -275 
Q 600 75 887 737 
Q 1175 1400 1237 2125 
Q 1300 2850 1300 3625 
Q 1300 4400 1275 4975 
L 5450 4975 
z
M 4925 3225 
L 4925 4525 
L 1800 4525 
L 1800 3225 
L 4925 3225 
z
" transform="scale(0.015625)"/>
     </defs>
     <use xlink:href="#SimHei-529f"/>
     <use xlink:href="#SimHei-7387" x="100"/>
     <use xlink:href="#SimHei-8c31" x="200"/>
     <use xlink:href="#SimHei-5bc6" x="300"/>
     <use xlink:href="#SimHei-5ea6" x="400"/>
     <use xlink:href="#SimHei-20" x="500"/>
     <use xlink:href="#SimHei-28" x="550"/>
     <use xlink:href="#SimHei-5bf9" x="600"/>
     <use xlink:href="#SimHei-6570" x="700"/>
     <use xlink:href="#SimHei-5c3a" x="800"/>
     <use xlink:href="#SimHei-5ea6" x="900"/>
     <use xlink:href="#SimHei-29" x="1000"/>
    </g>
   </g>
  </g>
  <g id="text_57">
   <!-- 复合正弦信号频域分析 -->
   <g style="fill: #262626" transform="translate(280 20.0125) scale(0.16 -0.16)">
    <defs>
     <path id="SimHei-590d" d="M 2125 1200 
Q 1900 975 1687 787 
Q 1475 600 1100 350 
Q 1000 475 725 675 
Q 1225 950 1587 1275 
Q 1950 1600 2125 1950 
L 1450 1950 
Q 1475 2250 1475 2575 
L 1475 3825 
Q 1175 3525 700 3150 
Q 525 3375 325 3525 
Q 925 3850 1337 4300 
Q 1750 4750 1975 5200 
Q 2225 5050 2475 4975 
Q 2350 4875 2125 4600 
L 4850 4600 
Q 5150 4600 5750 4625 
L 5750 4200 
Q 5350 4225 5000 4225 
L 1900 4225 
Q 1700 4025 1500 3850 
L 5225 3850 
Q 5200 3500 5200 2875 
Q 5200 2275 5225 1950 
L 2675 1950 
Q 2575 1800 2400 1575 
L 5125 1575 
Q 4825 1100 4512 775 
Q 4200 450 3850 200 
Q 4250 75 4837 -25 
Q 5425 -125 6125 -150 
Q 6000 -325 5875 -650 
Q 4825 -500 4237 -350 
Q 3650 -200 3375 -75 
Q 2750 -325 2162 -450 
Q 1575 -575 725 -675 
Q 600 -350 500 -200 
Q 1225 -200 1950 -75 
Q 2675 50 2950 175 
Q 2425 475 1925 900 
Q 2175 1050 2275 1200 
L 2125 1200 
z
M 4750 3075 
L 4750 3475 
L 1925 3475 
L 1925 3075 
L 4750 3075 
z
M 4750 2325 
L 4750 2700 
L 1925 2700 
L 1925 2325 
L 4750 2325 
z
M 2325 1200 
Q 2800 725 3425 400 
Q 3900 675 4300 1200 
L 2325 1200 
z
" transform="scale(0.015625)"/>
     <path id="SimHei-5408" d="M 5050 1800 
Q 5025 1550 5025 650 
Q 5025 -250 5050 -525 
L 4525 -525 
L 4525 -50 
L 1750 -50 
L 1750 -600 
L 1250 -600 
Q 1275 -300 1275 550 
Q 1275 1425 1250 1800 
L 5050 1800 
z
M 3375 4800 
Q 4100 3925 4550 3600 
Q 5000 3275 5375 3100 
Q 5750 2925 6100 2825 
Q 5850 2550 5775 2300 
Q 5275 2525 4875 2775 
Q 4475 3025 4062 3412 
Q 3650 3800 3125 4475 
Q 2650 3800 2187 3362 
Q 1725 2925 1400 2675 
Q 1075 2425 675 2175 
Q 625 2275 275 2575 
Q 800 2825 1275 3175 
Q 1750 3525 2225 4062 
Q 2700 4600 3000 5225 
Q 3275 5050 3500 4950 
L 3375 4800 
z
M 4525 350 
L 4525 1400 
L 1750 1400 
L 1750 350 
L 4525 350 
z
M 3925 2825 
Q 4325 2825 4625 2850 
L 4625 2375 
Q 4300 2400 3950 2400 
L 2550 2400 
Q 2025 2400 1700 2375 
L 1700 2850 
Q 2175 2825 2550 2825 
L 3925 2825 
z
" transform="scale(0.015625)"/>
     <path id="SimHei-6b63" d="M 4825 4625 
Q 5300 4625 5675 4650 
L 5675 4150 
Q 5300 4175 4775 4175 
L 3575 4175 
L 3575 2600 
L 4850 2600 
Q 5250 2600 5550 2625 
L 5550 2150 
Q 5250 2175 4850 2175 
L 3575 2175 
L 3575 150 
L 4850 150 
Q 5375 150 5900 175 
L 5900 -325 
Q 5375 -300 4975 -300 
L 1175 -300 
Q 700 -300 375 -325 
L 375 175 
Q 700 150 1175 150 
L 1325 150 
L 1325 2350 
Q 1325 2800 1300 3125 
L 1875 3125 
Q 1850 2825 1850 2350 
L 1850 150 
L 3075 150 
L 3075 4175 
L 1625 4175 
Q 1150 4175 800 4150 
L 800 4650 
Q 1150 4625 1625 4625 
L 4825 4625 
z
" transform="scale(0.015625)"/>
     <path id="SimHei-5f26" d="M 5025 4325 
Q 5575 4325 6050 4350 
L 6050 3925 
Q 5525 3975 5025 3975 
L 3850 3975 
Q 4000 3825 4250 3675 
Q 4025 3550 3200 2150 
Q 3650 2150 4425 2175 
Q 4825 2650 4950 3075 
Q 5200 2925 5500 2775 
Q 5100 2325 4550 1587 
Q 4000 850 3400 200 
Q 3825 225 5325 325 
Q 5175 750 5000 1050 
Q 5225 1125 5475 1225 
Q 5850 325 6100 -375 
Q 5975 -425 5600 -550 
Q 5525 -325 5425 -50 
Q 4450 -100 3775 -175 
Q 3100 -250 2750 -375 
L 2575 150 
Q 2850 250 3275 637 
Q 3700 1025 4175 1775 
Q 3925 1775 3525 1737 
Q 3125 1700 2750 1600 
L 2575 2175 
Q 2875 2275 3225 2887 
Q 3575 3500 3700 3975 
Q 3025 3975 2550 3925 
L 2550 4350 
Q 3025 4325 3500 4325 
L 5025 4325 
z
M 950 -600 
Q 900 -325 750 -25 
Q 1350 -75 1462 0 
Q 1575 75 1625 300 
Q 1675 525 1725 1700 
L 425 1700 
Q 525 2575 525 3425 
L 1725 3425 
L 1725 4375 
L 1150 4375 
Q 750 4375 375 4350 
L 375 4800 
Q 750 4775 1125 4775 
L 2225 4775 
Q 2200 4300 2187 3900 
Q 2175 3500 2200 3025 
L 950 3025 
L 900 2100 
L 2225 2100 
Q 2175 1600 2125 850 
Q 2075 100 2000 -112 
Q 1925 -325 1725 -412 
Q 1525 -500 950 -600 
z
M 4375 5250 
Q 4475 4900 4600 4500 
Q 4350 4450 4100 4350 
Q 4025 4750 3850 5100 
Q 4125 5125 4375 5250 
z
" transform="scale(0.015625)"/>
     <path id="SimHei-5206" d="M 1000 -650 
Q 825 -375 575 -225 
Q 975 -75 1300 137 
Q 1625 350 1875 662 
Q 2125 975 2250 1350 
Q 2375 1725 2425 2275 
Q 1850 2275 1500 2250 
L 1500 2775 
Q 1900 2750 2525 2750 
L 5025 2750 
Q 4975 2375 4950 2100 
L 4750 250 
Q 4700 -200 4350 -350 
Q 4000 -500 3575 -525 
Q 3550 -275 3325 50 
Q 3850 25 4037 87 
Q 4225 150 4275 525 
L 4450 2275 
L 2950 2275 
Q 2875 1625 2737 1187 
Q 2600 750 2350 425 
Q 2100 100 1750 -175 
Q 1400 -450 1000 -650 
z
M 3950 5175 
Q 4125 4650 4662 3975 
Q 5200 3300 6175 2800 
Q 5975 2625 5775 2275 
Q 5325 2600 4987 2887 
Q 4650 3175 4425 3425 
Q 4200 3675 3925 4137 
Q 3650 4600 3475 5000 
Q 3750 5075 3950 5175 
z
M 2700 4825 
Q 2475 4425 2325 4125 
Q 2175 3825 2025 3587 
Q 1875 3350 1575 2950 
Q 1275 2550 850 2125 
Q 625 2350 400 2475 
Q 900 2925 1187 3300 
Q 1475 3675 1737 4112 
Q 2000 4550 2200 5075 
Q 2400 4925 2700 4825 
z
" transform="scale(0.015625)"/>
     <path id="SimHei-6790" d="M 5900 4550 
Q 5575 4525 5087 4450 
Q 4600 4375 3725 4275 
L 3725 3075 
L 5400 3075 
Q 5725 3075 6150 3100 
L 6150 2650 
Q 5700 2675 5250 2675 
L 5250 350 
Q 5250 -100 5275 -475 
L 4750 -475 
Q 4775 -75 4775 375 
L 4775 2675 
L 3725 2675 
Q 3725 2175 3650 1637 
Q 3575 1100 3437 637 
Q 3300 175 2850 -500 
Q 2675 -300 2275 -150 
Q 2825 325 3050 1112 
Q 3275 1900 3262 3000 
Q 3250 4100 3225 4650 
Q 3975 4700 4562 4800 
Q 5150 4900 5500 5050 
Q 5675 4750 5900 4550 
z
M 1900 525 
Q 1900 200 1925 -525 
L 1400 -525 
Q 1425 25 1425 525 
L 1425 2250 
Q 1175 1625 600 800 
Q 425 1075 200 1225 
Q 650 1725 962 2387 
Q 1275 3050 1375 3425 
Q 925 3425 450 3400 
L 450 3850 
Q 925 3825 1425 3825 
L 1425 4450 
Q 1425 4775 1400 5125 
L 1950 5125 
Q 1900 4825 1900 4450 
L 1900 3825 
Q 2300 3825 2775 3850 
L 2775 3400 
Q 2300 3425 1900 3425 
L 1900 525 
z
M 2375 2750 
Q 2800 2050 2925 1800 
Q 2700 1700 2450 1550 
Q 2300 1900 1950 2525 
Q 2175 2625 2375 2750 
z
" transform="scale(0.015625)"/>
    </defs>
    <use xlink:href="#SimHei-590d"/>
    <use xlink:href="#SimHei-5408" x="100"/>
    <use xlink:href="#SimHei-6b63" x="200"/>
    <use xlink:href="#SimHei-5f26" x="300"/>
    <use xlink:href="#SimHei-4fe1" x="400"/>
    <use xlink:href="#SimHei-53f7" x="500"/>
    <use xlink:href="#SimHei-9891" x="600"/>
    <use xlink:href="#SimHei-57df" x="700"/>
    <use xlink:href="#SimHei-5206" x="800"/>
    <use xlink:href="#SimHei-6790" x="900"/>
   </g>
  </g>
 </g>
 <defs>
  <clipPath id="pc091a573eb">
   <rect x="42.1175" y="52.81125" width="310.0075" height="104.87125"/>
  </clipPath>
  <clipPath id="p4e07860773">
   <rect x="399.1925" y="52.81125" width="310.0075" height="104.87125"/>
  </clipPath>
  <clipPath id="pd820f1c325">
   <rect x="42.1175" y="214.7325" width="310.0075" height="104.87125"/>
  </clipPath>
  <clipPath id="pab323c5fab">
   <rect x="399.1925" y="214.7325" width="310.0075" height="104.87125"/>
  </clipPath>
 </defs>
</svg>
